<svg width="642" height="426" viewBox="0 0 642 426" fill="none" xmlns="http://www.w3.org/2000/svg">
<rect x="2" width="640" height="426" fill="#BDD1F9"/>
<path d="M75.711 219.283C82.9714 206.419 100.054 202.475 114.822 202.136C199.3 200.196 476.921 193.821 562.647 191.866C578.772 191.498 599.026 196.483 601.344 212.445C603.339 226.183 596.714 243.692 574.815 261.188C561.512 271.815 597.887 290.778 575.295 323.054C566.709 335.319 531.79 356.863 438.014 342.915C398.141 336.984 364.689 348.68 357.317 352.795C353.165 355.111 348.605 357.156 343.713 358.946C292.709 377.686 203.635 368.537 164.383 348.315C158.821 345.448 133.485 330.537 152.688 308.808C164.812 295.086 112.432 283.448 93.5748 268.531C67.9893 248.292 69.0719 231.047 75.711 219.283Z" fill="#DCEAFF"/>
<path d="M583.667 275.974C576.704 293.109 555.81 300.925 537.314 300.927C439.967 300.933 146.397 300.954 69.2638 300.936C57.0702 300.934 45.3285 296.069 41.1987 284.596C32.5137 260.469 35.7114 222.936 66.0145 186.423C80.1105 169.441 42.7121 136.87 66.9902 84.6186C76.2162 64.7626 113.066 30.6332 210.313 57.1177C251.663 68.3783 286.75 50.3969 294.519 43.9047C298.895 40.25 303.688 37.0574 308.822 34.2976C362.342 5.38638 454.811 23.7981 495.174 58.5499C500.893 63.4763 526.9 88.9638 506.401 123.99C493.457 146.11 547.685 167.233 566.952 192.487C593.92 227.835 591.43 256.872 583.667 275.974Z" fill="#DCEAFF"/>
<path d="M413.216 155.61L411.554 163.001C411.459 163.422 411.719 163.858 412.135 163.975C412.551 164.092 412.965 163.844 413.06 163.423L414.722 156.032C414.817 155.611 414.556 155.175 414.14 155.058C413.724 154.941 413.31 155.189 413.216 155.61Z" fill="#ADC8FE"/>
<path d="M413.62 151.938C413.62 151.945 413.62 151.938 413.62 151.945C413.546 152.633 413.723 153.375 414.307 153.618C415.049 153.929 415.563 153.426 415.781 152.62C415.801 152.544 415.818 152.462 415.836 152.385V152.385C415.852 152.312 415.857 152.23 415.915 152.183C416.087 152.04 416.573 152.262 416.652 152.519C416.818 153.054 416.822 153.657 416.622 154.24C416.254 155.308 415.256 155.967 414.239 155.811C412.893 155.604 412.039 154.153 412.362 152.723C412.451 152.324 412.623 151.969 412.852 151.68C413.072 151.4 413.666 151.568 413.62 151.938Z" fill="#ADC8FE"/>
<path d="M412.856 167.249C412.856 167.242 412.856 167.249 412.856 167.242C412.93 166.554 412.753 165.812 412.17 165.569C411.424 165.257 410.909 165.763 410.694 166.572C410.675 166.645 410.658 166.718 410.642 166.792V166.792C410.624 166.871 410.617 166.964 410.553 167.011C410.375 167.143 409.9 166.923 409.822 166.668C409.656 166.133 409.652 165.53 409.852 164.946C410.22 163.879 411.218 163.22 412.235 163.376C413.581 163.582 414.435 165.034 414.113 166.464C414.023 166.863 413.851 167.218 413.622 167.507C413.407 167.787 412.812 167.619 412.856 167.249Z" fill="#ADC8FE"/>
<path d="M409.006 127.965C409.273 127.378 409.206 126.694 408.85 126.157C408.48 125.597 408.004 124.844 407.633 124.143C406.92 122.8 402.56 119.975 402.249 122.353C401.963 124.536 403.375 123.887 403.889 125.611C404.299 126.988 404.783 127.738 406.592 128.788C407.472 129.298 408.585 128.89 409.006 127.965V127.965Z" fill="#FFB27D"/>
<path d="M408.395 127.873V127.873C409.092 126.709 410.317 126.486 411.565 127.018C415.83 128.838 425.781 133.077 426.964 133.519C428.065 133.93 440.357 134.797 446.937 135.237C449.456 135.406 451.663 136.972 452.65 139.296V139.296C454.796 144.349 450.265 149.676 444.941 148.336C436.281 146.156 426.086 143.521 423.978 142.683C419.408 140.867 412.827 135.191 409.587 132.238C408.322 131.086 407.514 129.34 408.395 127.873V127.873Z" fill="#E58638"/>
<path d="M444.753 275.778C446.833 276.703 447.698 278.466 447.419 280.725V280.725C447.115 283.184 444.852 285.155 442.374 285.155H434.202C432.238 285.155 431.05 283.088 432.98 282.726V282.726C435.487 282.259 439.684 280.372 441.2 276.822C441.945 275.083 443.406 275.179 444.753 275.778Z" fill="#163560"/>
<path d="M469.344 276.12C471.146 271.703 476.652 278.177 476.173 282.923C476.08 283.848 475.886 284.486 475.532 284.521C475.351 284.538 468.995 284.526 467.268 284.803C465.515 285.084 463.032 285.038 461.405 284.963C460.296 284.912 458.529 284.632 459.066 283.66V283.66C459.395 283.064 460.024 282.425 461.222 282.179C463.72 281.664 467.885 279.699 469.344 276.12V276.12Z" fill="#163560"/>
<path d="M446.98 194.35C442.961 196.913 441.093 201.768 442.602 206.289C444.9 213.172 449.026 224.523 455.653 239.576C459.397 248.081 461.902 254.965 463.577 260.38C463.795 261.078 463.997 261.751 464.185 262.398C464.489 263.441 464.762 264.421 465.003 265.338C465.186 266.041 465.354 266.705 465.507 267.334C465.808 268.589 466.047 269.707 466.237 270.691C466.899 274.12 469.2 277.513 472.672 277.143V277.143V277.143C475.865 276.799 477.526 273.249 477.165 270.057C477.007 268.663 476.816 267.049 476.59 265.28C476.505 264.628 476.416 263.959 476.325 263.269C476.203 262.345 476.07 261.389 475.931 260.409C475.835 259.75 475.737 259.082 475.634 258.408C474.306 249.589 472.335 239.352 469.706 232.969C466.974 226.341 465.341 213.889 464.396 203.202C463.647 194.75 454.133 189.787 446.98 194.35V194.35Z" fill="#233862"/>
<path d="M433.849 191.025C433.976 199.428 434.572 217.054 437.247 237.373C438.539 247.191 439.233 255.06 439.591 261.153C439.632 261.87 439.669 262.561 439.699 263.227C439.754 264.3 439.795 265.311 439.828 266.257C439.852 266.974 439.872 267.655 439.885 268.302C439.997 273.2 439.849 276.12 439.767 277.285C439.742 277.647 439.913 277.994 440.246 278.139C440.298 278.161 440.355 278.185 440.416 278.21C440.418 278.21 440.419 278.211 440.42 278.211V278.211C440.422 278.211 440.423 278.211 440.425 278.211C441.231 278.535 442.742 278.972 445.016 278.972C446.04 278.972 446.92 278.826 447.625 278.641V278.641C448.907 278.307 449.678 277.13 449.87 275.82C450.11 274.178 450.464 271.652 450.844 268.599C450.929 267.94 451.012 267.259 451.095 266.554C451.208 265.622 451.315 264.655 451.428 263.655C451.5 262.987 451.574 262.308 451.646 261.618C452.55 252.891 453.249 242.523 452.495 235.52C452.375 234.404 452.319 233.161 452.314 231.816V231.812C452.308 225.524 453.504 217.063 454.942 209.167C454.95 209.123 454.959 209.079 454.967 209.035V209.035C456.455 200.889 458.195 193.366 459.136 189.471C459.343 188.611 459.511 187.928 459.629 187.453C459.727 187.059 459.438 186.673 459.031 186.658V186.658H459.027L452.776 186.444L435.722 185.85L434.673 185.814V185.814C434.354 185.803 433.82 186.314 433.819 186.633C433.817 187.494 433.819 188.988 433.849 191.025Z" fill="#2A4E96"/>
<path d="M450.619 128.404C450.972 130.331 450.433 132.447 448.898 133.665V133.665C447.872 134.48 446.532 134.786 445.254 134.498L445.191 134.483C442.92 133.971 441.447 131.805 441.822 129.507C441.889 129.095 441.957 128.678 442.024 128.269C442.045 128.138 442.067 128.004 442.089 127.875V127.875C442.457 125.641 443.845 123.707 445.843 122.641L448.377 121.288V121.288C449.245 120.824 450.386 121.588 450.315 122.569V122.569C450.144 124.885 450.34 126.881 450.619 128.404Z" fill="#FFB27D"/>
<path d="M441.597 129.908C441.732 129.847 449.904 127.265 450.79 127.578V127.578C452.178 128.068 451.076 130.077 449.668 130.506L443.752 132.311C441.775 132.914 439.713 130.758 441.597 129.908V129.908Z" fill="#E58638"/>
<path d="M463.6 188.644C462.217 195.414 433.339 174.174 433.723 170.043C433.764 169.588 433.807 169.131 433.849 168.679C434.382 162.928 434.892 157.299 434.929 153.628C434.957 150.442 435.367 147.184 435.914 144.225C436.415 141.492 437.031 139.014 437.569 137.081C437.946 135.722 438.651 134.523 439.588 133.582C440.252 132.913 441.03 132.376 441.892 132.011C442.125 131.904 442.365 131.819 442.609 131.744C446.087 130.662 450.898 129.324 452.205 129.733C455.74 130.849 458.364 137.511 460.224 146.007C463.698 161.907 464.504 184.234 463.6 188.644Z" fill="#F99746"/>
<path d="M449.888 122.664C448.709 125.082 444.502 127.192 442.39 128.11C442.231 128.179 442.06 128.044 442.089 127.873V127.873V127.873C442.456 125.639 443.845 123.705 445.842 122.639L446.498 122.288C447.733 121.629 450.162 120.75 450.048 122.145C450.036 122.295 449.984 122.467 449.888 122.664Z" fill="#FCA56B"/>
<path d="M438.983 122.724C439.31 123.739 440.406 124.152 441.448 124.381C444.394 125.031 450.653 125.741 452.093 120.515C453.992 113.619 456.601 109.417 450.111 106.93C443.622 104.442 441.614 106.669 440.458 108.807C439.485 110.605 437.896 119.355 438.983 122.724Z" fill="#FFB27D"/>
<path d="M443.622 102.225C438.234 103.12 437.739 117.014 443.069 115.819V115.819C444.618 115.471 446.022 115.214 445.796 117.633C445.569 120.052 443.42 122.846 448.196 123.274C452.97 123.702 459.835 110.511 458.522 108.014C456.25 103.689 448.375 101.436 443.622 102.225Z" fill="#163560"/>
<path d="M439.955 185.008C438.861 185.346 434.528 183.02 434.594 181.877V181.877C434.657 180.798 434.59 179.637 434.472 178.424C433.871 172.281 436.888 166.735 442.086 163.407L448.31 159.422C450.183 158.222 451.519 158.826 451.611 161.049C451.885 167.679 451.073 181.574 439.955 185.008Z" fill="#E58638"/>
<path d="M463.601 188.644C463.224 189.392 462.864 190.116 462.519 190.817C457.567 200.874 447.097 205.387 439.464 197.176C439.001 196.678 438.552 196.189 438.12 195.716C435.35 192.677 433.749 188.715 433.671 184.604C433.611 181.448 433.559 177.679 433.578 174.651C433.595 172.015 435.701 169.982 438.336 169.901V169.901C438.851 169.886 439.362 169.946 439.864 170.061C442.197 170.593 449.284 171.917 451.382 168.932C453.2 166.349 453.144 156.496 452.969 151.176C452.904 149.179 454.241 147.388 456.187 146.937V146.937C458.406 146.423 460.621 147.818 461.046 150.056C463.986 165.528 465.437 184.998 463.601 188.644Z" fill="#2A4E96"/>
<path d="M418.201 163.103C420.802 163.91 418.228 159.355 415.919 157.911C415.564 157.689 415.279 157.528 415.132 157.479C414.459 157.255 412.25 157.012 412.148 157.199C412.046 157.384 411.743 157.956 412.128 158.15C412.514 158.342 412.995 158.274 412.849 158.41C412.706 158.544 411.255 157.805 410.92 158.597C410.584 159.39 410.29 162.106 411.993 162.928C413.697 163.752 417.898 163.008 418.201 163.103V163.103Z" fill="#FFB27D"/>
<path d="M418.211 162.318C418.32 160.485 420.453 159.787 422.263 160.097C427.276 160.956 437.046 162.527 438.182 161.934C439.952 161.01 438.667 150.922 437.818 145.397C437.451 143.014 436.898 140.35 438.412 138.474C439.077 137.651 440.115 136.904 441.736 136.553C444.26 136.007 446.728 137.066 448.227 137.939C449.239 138.529 450.124 139.317 450.823 140.257C451.816 141.591 453.055 143.774 452.776 146.097C451.772 154.459 450.208 171.466 444.988 174.072C439.623 176.751 426.166 169.245 420.915 166.082C419.477 165.216 418.114 163.994 418.211 162.318V162.318V162.318Z" fill="#F99746"/>
<path d="M454.104 146.681C454.19 147.072 453.941 147.46 453.551 147.551V147.551C453.147 147.644 452.742 147.397 452.633 146.996C451.923 144.398 449.031 135.614 442.01 133.882C441.126 133.664 440.743 132.561 441.561 132.163V132.163C441.772 132.061 442.014 132.047 442.238 132.117C445.93 133.271 451.901 136.673 454.104 146.681Z" fill="#2A4E96"/>
<g opacity="0.5">
<path d="M464.944 260.378C464.272 260.396 463.788 261.065 463.98 261.71V261.71C464.104 262.129 464.482 262.4 464.919 262.39C468.475 262.304 471.819 261.587 474.334 260.886C474.604 260.811 474.867 260.735 475.118 260.66C475.587 260.52 475.877 260.06 475.806 259.576V259.576C475.716 258.967 475.1 258.58 474.509 258.755C472.052 259.48 468.606 260.28 464.944 260.378Z" fill="white"/>
</g>
<g opacity="0.5">
<path d="M466.258 265.293C465.619 265.33 465.164 265.963 465.319 266.584V266.584C465.433 267.037 465.838 267.326 466.304 267.3C469.485 267.122 472.448 266.474 474.728 265.839C475.101 265.734 475.456 265.629 475.79 265.527C476.251 265.386 476.542 264.946 476.479 264.468V264.468C476.398 263.852 475.776 263.448 475.181 263.627C472.909 264.311 469.711 265.094 466.258 265.293Z" fill="white"/>
</g>
<path d="M407.323 124.527C406.844 125.456 408.775 124.811 408.416 123.829C408.408 123.806 408.399 123.783 408.39 123.761C407.97 122.654 407.436 121.249 407.323 121.971C407.208 122.696 407.628 123.928 407.323 124.527V124.527Z" fill="#FFB27D"/>
<path d="M440.87 261.403C440.225 261.292 439.629 261.819 439.663 262.473V262.473C439.686 262.927 440.012 263.292 440.459 263.37C443.723 263.94 446.865 263.952 449.293 263.821C449.763 263.795 450.205 263.764 450.616 263.73C451.089 263.692 451.463 263.327 451.514 262.856V262.856C451.582 262.223 451.052 261.683 450.418 261.734C447.996 261.928 444.502 262.025 440.87 261.403Z" fill="white"/>
<path d="M441.046 266.459C440.42 266.368 439.851 266.882 439.868 267.514V267.514C439.881 267.987 440.222 268.362 440.69 268.432C443.665 268.875 446.505 268.879 448.738 268.757C449.201 268.731 449.638 268.702 450.044 268.67C450.512 268.634 450.885 268.286 450.943 267.82V267.82C451.022 267.18 450.486 266.62 449.844 266.672C447.586 266.851 444.402 266.948 441.046 266.459Z" fill="white"/>
<path d="M140.885 161.046V161.406C140.885 168.304 135.649 173.916 129.215 173.916H94.2405C90.355 173.916 87.1947 177.303 87.1947 181.469V182.663C87.1947 186.828 90.355 190.215 94.2405 190.215H132.85C133.634 190.215 134.274 190.925 134.274 191.803C134.274 192.734 133.937 193.575 133.388 194.186C132.843 194.796 132.088 195.173 131.256 195.173H94.2405C87.8046 195.173 82.5687 189.561 82.5687 182.663V181.469C82.5687 174.573 87.8046 168.961 94.2405 168.961H129.215C133.098 168.961 136.261 165.569 136.261 161.406V161.046C136.261 156.881 133.098 153.491 129.215 153.491H93.5893C87.1555 153.491 81.9196 147.879 81.9196 140.981V139.306C81.9196 132.407 87.1555 126.795 93.5893 126.795H129.215C133.098 126.795 136.261 123.408 136.261 119.243C136.261 115.078 133.098 111.688 129.215 111.688H62.2763C60.6066 111.688 59.3779 110.139 59.8548 108.539V108.539C60.172 107.474 61.1674 106.732 62.2781 106.732H129.215C135.649 106.732 140.885 112.344 140.885 119.243C140.885 126.139 135.649 131.753 129.215 131.753H93.5893C89.706 131.753 86.5435 135.14 86.5435 139.306V140.981C86.5435 145.149 89.706 148.536 93.5893 148.536H129.215C135.646 148.536 140.885 154.148 140.885 161.046Z" fill="#BDD1F9"/>
<path d="M341.259 108.213H282.969C282.555 108.213 282.219 108.549 282.219 108.963C282.219 109.378 282.555 109.713 282.969 109.713H341.259C341.673 109.713 342.009 109.378 342.009 108.963C342.009 108.549 341.673 108.213 341.259 108.213Z" fill="#99B9FF"/>
<path d="M281.528 108.746C281.528 107.87 282.164 107.163 282.946 107.163C283.73 107.163 284.364 107.87 284.364 108.746C284.364 109.621 283.728 110.329 282.946 110.329C282.162 110.329 281.528 109.619 281.528 108.746Z" fill="#99B9FF"/>
<path d="M340.182 108.746C340.182 107.87 340.818 107.163 341.6 107.163C342.384 107.163 343.017 107.87 343.017 108.746C343.017 109.621 342.384 110.329 341.6 110.329C340.815 110.329 340.182 109.619 340.182 108.746Z" fill="#99B9FF"/>
<path d="M336.2 108.255V136.43C336.2 150.029 326.291 159.137 312.802 160.866V160.866V160.866C300.295 162.469 290.476 150.823 290.476 138.213V108.496C290.476 107.64 291.094 106.949 291.861 106.947C298.665 106.935 328.497 106.884 334.961 106.874C335.645 106.871 336.2 107.491 336.2 108.255Z" fill="#F99746"/>
<path d="M324.202 140.45C330.399 140.594 336.2 145.613 336.2 151.812V151.812C336.2 156.486 332.843 160.287 328.17 160.342C323.024 160.403 316.959 160.334 312.802 160.866C311.551 161.027 310.009 161.118 308.324 161.161C298.251 161.416 290.476 152.781 290.476 142.704V141.308C290.476 141.252 290.491 141.127 290.499 141.072V141.072C290.587 140.505 291.086 140.17 291.659 140.211C294.412 140.408 302.291 140.874 309.444 140.368C314.111 140.038 319.277 140.335 324.202 140.45Z" fill="#FFAF73"/>
<path d="M298.861 151.578C295.88 151.578 292.499 151.45 291.122 151.393C290.777 151.379 290.51 151.087 290.522 150.742V150.742C290.535 150.397 290.82 150.131 291.165 150.145C293.121 150.225 299.213 150.449 302.243 150.245L303.097 150.187C307.486 149.883 316.616 149.251 320.432 149.961C323.834 150.594 333.393 150.004 335.943 149.83C336.291 149.807 336.59 150.073 336.611 150.421V150.421C336.631 150.761 336.38 151.053 336.041 151.077C333.493 151.253 323.823 151.858 320.247 151.194C316.557 150.508 307.172 151.157 303.167 151.434L302.311 151.493C301.368 151.554 300.15 151.578 298.861 151.578Z" fill="white"/>
<path d="M298.859 154.328C295.879 154.328 292.499 154.2 291.121 154.143C290.775 154.129 290.508 153.836 290.52 153.49V153.49C290.533 153.145 290.819 152.879 291.164 152.893C293.122 152.973 299.212 153.196 302.241 152.993L303.095 152.935C307.484 152.631 316.614 151.998 320.43 152.709C323.835 153.342 333.41 152.75 335.948 152.579C336.294 152.556 336.588 152.817 336.608 153.164V153.164C336.629 153.507 336.374 153.803 336.031 153.827C333.471 154.003 323.819 154.607 320.245 153.944C316.555 153.256 307.17 153.907 303.165 154.184L302.309 154.243C301.368 154.304 300.15 154.328 298.859 154.328Z" fill="white"/>
<path d="M415.689 105.106C421.959 102.523 423.569 109.293 418.264 113.518C415.34 115.846 412.742 117.68 412.167 117.358V117.358C410.556 116.462 408.878 114.977 407.565 116.272C405.913 117.901 404.605 120.246 403.878 121.718C403.838 121.798 403.801 121.876 403.765 121.951C403.423 122.664 402.286 123.267 401.64 122.811V122.811C401.061 122.403 401.239 121.948 401.448 121.271C403.404 114.912 409.473 107.662 415.689 105.106V105.106Z" fill="#99B9FF"/>
<path d="M429.275 106.856C430.479 109.713 427.43 114.146 422.464 116.755C417.498 119.364 412.496 119.162 411.291 116.305C410.087 113.448 413.136 109.015 418.102 106.406C423.068 103.797 428.07 103.999 429.275 106.856Z" fill="#D4E4FF"/>
<path d="M421.247 111.598C421.314 111.756 421.116 112.016 420.805 112.179C420.495 112.342 420.188 112.347 420.121 112.189C420.053 112.031 420.251 111.771 420.563 111.605C420.874 111.445 421.179 111.44 421.247 111.598Z" fill="#99B9FF"/>
<path d="M417.44 113.599C417.508 113.757 417.309 114.017 416.998 114.18C416.689 114.343 416.381 114.348 416.314 114.19C416.246 114.032 416.445 113.772 416.756 113.609C417.068 113.443 417.372 113.441 417.44 113.599Z" fill="#99B9FF"/>
<path d="M423.15 110.599C423.218 110.757 423.02 111.017 422.708 111.18C422.399 111.343 422.092 111.348 422.024 111.19C421.957 111.031 422.155 110.771 422.467 110.606C422.778 110.443 423.083 110.441 423.15 110.599Z" fill="#99B9FF"/>
<path d="M425.054 109.599C425.121 109.757 424.923 110.017 424.612 110.183C424.302 110.346 423.995 110.351 423.928 110.19C423.86 110.032 424.058 109.772 424.37 109.606C424.679 109.444 424.986 109.441 425.054 109.599Z" fill="#99B9FF"/>
<path d="M427.517 108.303C427.585 108.461 427.387 108.721 427.077 108.887C426.768 109.05 426.461 109.055 426.394 108.894C426.326 108.736 426.524 108.476 426.836 108.313C427.145 108.148 427.452 108.145 427.517 108.303Z" fill="#99B9FF"/>
<path d="M419.343 112.6C419.411 112.758 419.213 113.018 418.901 113.181C418.592 113.344 418.285 113.349 418.217 113.191C418.15 113.033 418.348 112.772 418.659 112.61C418.971 112.444 419.276 112.439 419.343 112.6Z" fill="#99B9FF"/>
<path d="M415.101 114.827C415.168 114.985 414.97 115.245 414.661 115.408C414.35 115.571 414.045 115.576 413.977 115.416C413.91 115.258 414.108 114.997 414.419 114.835C414.728 114.674 415.036 114.669 415.101 114.827Z" fill="#99B9FF"/>
<path d="M420.707 110.322C420.775 110.48 420.576 110.74 420.265 110.903C419.954 111.066 419.649 111.07 419.581 110.912C419.514 110.754 419.712 110.494 420.023 110.329C420.335 110.166 420.642 110.161 420.707 110.322Z" fill="#99B9FF"/>
<path d="M416.902 112.32C416.97 112.478 416.772 112.738 416.462 112.901C416.153 113.064 415.846 113.069 415.778 112.909C415.711 112.75 415.909 112.49 416.22 112.327C416.53 112.164 416.835 112.162 416.902 112.32Z" fill="#99B9FF"/>
<path d="M414.922 113.14C414.989 113.298 414.791 113.558 414.48 113.721C414.168 113.884 413.863 113.889 413.796 113.731C413.728 113.572 413.927 113.312 414.238 113.149C414.55 112.984 414.854 112.982 414.922 113.14Z" fill="#99B9FF"/>
<path d="M426.002 107.318C426.069 107.476 425.871 107.737 425.559 107.902C425.25 108.065 424.943 108.07 424.876 107.909C424.808 107.751 425.006 107.491 425.318 107.328C425.629 107.163 425.934 107.158 426.002 107.318Z" fill="#99B9FF"/>
<path d="M416.194 111.134C416.262 111.292 416.064 111.552 415.754 111.715C415.443 111.878 415.138 111.882 415.07 111.722C415.003 111.564 415.201 111.304 415.51 111.141C415.822 110.978 416.129 110.976 416.194 111.134Z" fill="#99B9FF"/>
<path d="M422.61 109.32C422.678 109.478 422.48 109.738 422.168 109.901C421.859 110.064 421.552 110.069 421.484 109.911C421.417 109.753 421.615 109.492 421.927 109.327C422.238 109.167 422.545 109.162 422.61 109.32Z" fill="#99B9FF"/>
<path d="M424.514 108.32C424.581 108.478 424.383 108.739 424.072 108.901C423.76 109.064 423.455 109.069 423.388 108.909C423.32 108.751 423.518 108.491 423.83 108.328C424.141 108.165 424.446 108.162 424.514 108.32Z" fill="#99B9FF"/>
<path d="M418.804 111.321C418.871 111.479 418.673 111.739 418.361 111.902C418.052 112.065 417.745 112.07 417.68 111.912C417.612 111.754 417.81 111.491 418.12 111.328C418.431 111.165 418.738 111.163 418.804 111.321Z" fill="#99B9FF"/>
<path d="M421.726 112.739C421.794 112.897 421.595 113.157 421.284 113.322C420.975 113.485 420.668 113.49 420.6 113.329C420.533 113.171 420.731 112.911 421.042 112.746C421.354 112.583 421.661 112.581 421.726 112.739Z" fill="#99B9FF"/>
<path d="M417.921 114.737C417.988 114.895 417.79 115.155 417.479 115.318C417.167 115.481 416.862 115.486 416.795 115.328C416.727 115.17 416.926 114.91 417.237 114.744C417.546 114.584 417.853 114.579 417.921 114.737Z" fill="#99B9FF"/>
<path d="M416.593 116.135C416.66 116.293 416.462 116.554 416.15 116.719C415.841 116.882 415.534 116.887 415.469 116.726C415.401 116.568 415.599 116.308 415.909 116.145C416.22 115.982 416.527 115.977 416.593 116.135Z" fill="#99B9FF"/>
<path d="M423.63 111.736C423.697 111.894 423.499 112.155 423.19 112.32C422.878 112.483 422.573 112.488 422.506 112.327C422.438 112.169 422.637 111.909 422.946 111.746C423.255 111.583 423.564 111.578 423.63 111.736Z" fill="#99B9FF"/>
<path d="M425.534 110.737C425.601 110.895 425.403 111.155 425.094 111.318C424.782 111.481 424.477 111.486 424.41 111.326C424.342 111.168 424.54 110.907 424.85 110.744C425.161 110.584 425.466 110.579 425.534 110.737Z" fill="#99B9FF"/>
<path d="M427.097 109.915C427.165 110.073 426.966 110.334 426.655 110.499C426.346 110.662 426.039 110.667 425.973 110.506C425.906 110.348 426.104 110.088 426.413 109.925C426.722 109.762 427.03 109.757 427.097 109.915Z" fill="#99B9FF"/>
<path d="M426.073 112.016C426.141 112.174 425.943 112.434 425.631 112.6C425.322 112.763 425.015 112.768 424.947 112.607C424.88 112.449 425.078 112.189 425.389 112.026C425.701 111.863 426.006 111.858 426.073 112.016Z" fill="#99B9FF"/>
<path d="M419.823 113.738C419.891 113.896 419.692 114.156 419.383 114.319C419.072 114.482 418.767 114.486 418.699 114.328C418.632 114.17 418.83 113.91 419.141 113.747C419.451 113.582 419.758 113.579 419.823 113.738Z" fill="#99B9FF"/>
<path d="M422.266 114.017C422.334 114.175 422.136 114.436 421.824 114.598C421.515 114.761 421.208 114.766 421.143 114.606C421.075 114.448 421.273 114.188 421.583 114.025C421.894 113.862 422.199 113.857 422.266 114.017Z" fill="#99B9FF"/>
<path d="M419.603 107.7C419.67 107.858 419.472 108.118 419.16 108.281C418.851 108.444 418.544 108.449 418.477 108.288C418.409 108.13 418.607 107.87 418.919 107.707C419.23 107.544 419.535 107.542 419.603 107.7Z" fill="#99B9FF"/>
<path d="M422.826 115.347C422.894 115.505 422.696 115.766 422.384 115.931C422.073 116.094 421.768 116.099 421.7 115.938C421.633 115.78 421.831 115.52 422.142 115.357C422.454 115.192 422.761 115.189 422.826 115.347Z" fill="#99B9FF"/>
<path d="M424.17 113.015C424.237 113.174 424.039 113.434 423.728 113.599C423.419 113.762 423.111 113.767 423.044 113.606C422.976 113.448 423.175 113.188 423.486 113.025C423.798 112.862 424.102 112.857 424.17 113.015Z" fill="#99B9FF"/>
<path d="M420.363 115.017C420.43 115.175 420.232 115.435 419.921 115.598C419.609 115.761 419.304 115.766 419.237 115.608C419.169 115.449 419.367 115.189 419.679 115.024C419.99 114.861 420.295 114.859 420.363 115.017Z" fill="#99B9FF"/>
<path d="M418.638 115.924C418.706 116.082 418.507 116.342 418.198 116.505C417.889 116.668 417.582 116.672 417.514 116.512C417.447 116.354 417.645 116.094 417.956 115.931C418.266 115.768 418.571 115.763 418.638 115.924Z" fill="#99B9FF"/>
<path d="M420.169 109.045C420.237 109.203 420.038 109.463 419.727 109.626C419.415 109.789 419.111 109.794 419.043 109.633C418.975 109.475 419.174 109.215 419.485 109.052C419.797 108.889 420.104 108.887 420.169 109.045Z" fill="#99B9FF"/>
<path d="M422.073 108.045C422.14 108.203 421.942 108.464 421.631 108.627C421.321 108.789 421.014 108.794 420.947 108.636C420.879 108.478 421.077 108.218 421.389 108.055C421.7 107.89 422.007 107.885 422.073 108.045Z" fill="#99B9FF"/>
<path d="M421.628 106.985C421.696 107.143 421.497 107.403 421.186 107.566C420.874 107.729 420.569 107.734 420.502 107.576C420.434 107.418 420.633 107.158 420.942 106.995C421.253 106.832 421.56 106.827 421.628 106.985Z" fill="#99B9FF"/>
<path d="M424.61 114.061C424.677 114.219 424.479 114.479 424.168 114.642C423.858 114.805 423.551 114.81 423.486 114.652C423.418 114.494 423.617 114.234 423.926 114.071C424.237 113.905 424.542 113.903 424.61 114.061Z" fill="#99B9FF"/>
<path d="M420.988 115.963C421.055 116.121 420.857 116.381 420.548 116.546C420.236 116.709 419.931 116.714 419.864 116.554C419.796 116.396 419.994 116.135 420.306 115.97C420.615 115.807 420.922 115.805 420.988 115.963Z" fill="#99B9FF"/>
<path d="M417.821 108.987C417.888 109.145 417.69 109.405 417.379 109.568C417.069 109.731 416.762 109.736 416.695 109.575C416.627 109.417 416.826 109.157 417.137 108.994C417.448 108.831 417.753 108.829 417.821 108.987Z" fill="#99B9FF"/>
<path d="M423.976 107.044C424.044 107.202 423.845 107.462 423.534 107.625C423.223 107.788 422.918 107.793 422.85 107.632C422.783 107.474 422.981 107.214 423.292 107.051C423.604 106.89 423.911 106.886 423.976 107.044Z" fill="#99B9FF"/>
<path d="M418.268 110.044C418.335 110.202 418.137 110.462 417.826 110.625C417.517 110.788 417.209 110.793 417.144 110.633C417.077 110.475 417.275 110.214 417.584 110.052C417.893 109.889 418.2 109.886 418.268 110.044Z" fill="#99B9FF"/>
<path d="M388.462 282.988C388.462 283.802 387.802 284.462 386.987 284.462V284.462C386.173 284.462 385.513 283.802 385.513 282.988V100.087C385.513 99.3406 386.055 98.7327 386.726 98.7327H387.351C387.965 98.7327 388.462 99.2871 388.462 99.9728V282.988Z" fill="#AEC3FF"/>
<path d="M389.626 171.723C389.025 171.792 388.51 171.327 388.465 170.723V170.723C388.417 170.085 388.912 169.544 389.543 169.435C390.856 169.209 392.051 168.672 393.17 167.808C397.818 164.221 400.602 155.4 401.216 142.296C401.565 134.862 401.108 127.975 400.842 124.857C400.761 123.907 401.484 123.064 402.436 123.014V123.014C403.306 122.969 404.057 123.59 404.136 124.457C404.78 131.574 406.691 160.785 395.662 169.296C393.902 170.651 391.876 171.465 389.626 171.723Z" fill="#99B9FF"/>
<path d="M415.733 209.512H389.098C387.933 209.512 386.987 208.457 386.987 207.156C386.987 205.855 387.933 204.8 389.098 204.8H415.733C416.898 204.8 417.843 205.855 417.843 207.156C417.843 208.457 416.898 209.512 415.733 209.512Z" fill="#AEC3FF"/>
<path d="M405.922 125.275H387.29C386.312 125.275 385.51 124.381 385.51 123.289C385.51 122.197 386.312 121.302 387.29 121.302H405.922C406.9 121.302 407.702 122.197 407.702 123.289C407.702 124.381 406.903 125.275 405.922 125.275Z" fill="#AEC3FF"/>
<path d="M409.898 174.6C412.502 174.6 414.565 176.798 414.399 179.397L413.295 196.757C413.178 198.603 411.646 200.041 409.795 200.041V200.041C407.929 200.041 406.389 198.579 406.293 196.715L405.393 179.344C405.26 176.764 407.315 174.6 409.898 174.6V174.6Z" fill="#F99746"/>
<path d="M410.705 200.041H408.845C407.531 200.041 406.465 201.107 406.465 202.422C406.465 203.736 407.531 204.802 408.845 204.802H410.705C412.02 204.802 413.086 203.736 413.086 202.422C413.086 201.107 412.02 200.041 410.705 200.041Z" fill="white"/>
<path d="M413.911 173.012H405.941C405.503 173.012 405.147 173.367 405.147 173.806C405.147 174.244 405.503 174.6 405.941 174.6H413.911C414.349 174.6 414.705 174.244 414.705 173.806C414.705 173.367 414.349 173.012 413.911 173.012Z" fill="#D87932"/>
<path d="M412.572 183.297C412.572 182.436 411.947 181.739 411.176 181.739C410.405 181.739 409.78 182.436 409.78 183.297C409.78 184.158 410.405 184.856 411.176 184.856C411.947 184.856 412.572 184.158 412.572 183.297Z" fill="white"/>
<path d="M410.71 187.083C410.71 186.016 409.935 185.153 408.981 185.153C408.025 185.153 407.251 186.018 407.251 187.083C407.251 188.151 408.027 189.014 408.981 189.014C409.935 189.016 410.71 188.151 410.71 187.083Z" fill="white"/>
<path d="M409.109 183.883C409.109 183.346 408.719 182.908 408.236 182.908C407.752 182.908 407.362 183.346 407.362 183.883C407.362 184.421 407.752 184.858 408.236 184.858C408.719 184.858 409.109 184.421 409.109 183.883Z" fill="white"/>
<path d="M408.806 183.545C408.806 183.358 408.671 183.207 408.503 183.207C408.336 183.207 408.201 183.358 408.201 183.545C408.201 183.732 408.336 183.883 408.503 183.883C408.671 183.883 408.806 183.732 408.806 183.545Z" fill="#F99746"/>
<path d="M408.745 187.83C408.745 187.494 408.501 187.224 408.203 187.224C407.902 187.224 407.661 187.497 407.661 187.83C407.661 188.165 407.905 188.435 408.203 188.435C408.504 188.435 408.745 188.165 408.745 187.83Z" fill="#F99746"/>
<path d="M412.252 183.798C412.252 183.436 411.989 183.142 411.664 183.142C411.34 183.142 411.076 183.436 411.076 183.798C411.076 184.161 411.34 184.455 411.664 184.455C411.989 184.455 412.252 184.161 412.252 183.798Z" fill="#F99746"/>
<path d="M397.831 182.067C400.419 182.067 402.449 184.288 402.217 186.866L401.325 196.771C401.159 198.623 399.607 200.041 397.748 200.041V200.041C395.866 200.041 394.304 198.589 394.166 196.712L393.439 186.793C393.252 184.241 395.272 182.067 397.831 182.067V182.067Z" fill="#F99746"/>
<path d="M398.65 200.041H396.79C395.475 200.041 394.41 201.107 394.41 202.422C394.41 203.736 395.475 204.802 396.79 204.802H398.65C399.965 204.802 401.031 203.736 401.031 202.422C401.031 201.107 399.965 200.041 398.65 200.041Z" fill="white"/>
<path d="M402.089 180.946H393.653C393.343 180.946 393.092 181.197 393.092 181.507C393.092 181.816 393.343 182.067 393.653 182.067H402.089C402.398 182.067 402.649 181.816 402.649 181.507C402.649 181.197 402.398 180.946 402.089 180.946Z" fill="#D87932"/>
<path d="M400.517 186.938C400.517 186.077 399.892 185.379 399.121 185.379C398.35 185.379 397.725 186.077 397.725 186.938C397.725 187.798 398.35 188.496 399.121 188.496C399.892 188.496 400.517 187.798 400.517 186.938Z" fill="white"/>
<path d="M398.655 190.723C398.655 189.656 397.88 188.793 396.926 188.793C395.969 188.793 395.196 189.658 395.196 190.723C395.196 191.791 395.972 192.654 396.926 192.654C397.88 192.654 398.655 191.788 398.655 190.723Z" fill="white"/>
<path d="M397.052 187.521C397.052 186.984 396.662 186.546 396.179 186.546C395.695 186.546 395.305 186.984 395.305 187.521C395.305 188.059 395.695 188.496 396.179 188.496C396.662 188.496 397.052 188.059 397.052 187.521Z" fill="white"/>
<path d="M396.751 187.183C396.751 186.996 396.616 186.845 396.448 186.845C396.281 186.845 396.146 186.996 396.146 187.183C396.146 187.37 396.281 187.521 396.448 187.521C396.616 187.521 396.751 187.37 396.751 187.183Z" fill="#F99746"/>
<path d="M396.691 191.468C396.691 191.132 396.447 190.862 396.148 190.862C395.85 190.862 395.606 191.134 395.606 191.468C395.606 191.801 395.85 192.073 396.148 192.073C396.447 192.073 396.691 191.803 396.691 191.468Z" fill="#F99746"/>
<path d="M400.195 187.436C400.195 187.074 399.931 186.779 399.607 186.779C399.282 186.779 399.019 187.074 399.019 187.436C399.019 187.798 399.282 188.092 399.607 188.092C399.933 188.092 400.195 187.798 400.195 187.436Z" fill="#F99746"/>
<path d="M410.733 113.95C410.663 114.358 410.28 114.537 409.891 114.682V114.682C407.907 115.42 407.018 115.173 408.59 113.755C409.205 113.201 409.73 112.908 410.046 113.033C410.677 113.281 410.785 113.644 410.733 113.95Z" fill="#7FA5EA"/>
<path d="M402.449 301.364C404.031 301.364 405.072 303.013 404.392 304.442L401.559 310.389C401.343 310.843 400.885 311.132 400.383 311.132V311.132C399.566 311.132 398.951 310.388 399.104 309.586L400.335 303.114C400.528 302.099 401.415 301.364 402.449 301.364V301.364Z" fill="#95B1EF"/>
<path d="M508.425 301.364C506.843 301.364 505.801 303.014 506.482 304.443L509.313 310.389C509.53 310.842 509.988 311.132 510.49 311.132V311.132C511.308 311.132 511.924 310.388 511.771 309.584L510.54 303.115C510.347 302.099 509.459 301.364 508.425 301.364V301.364Z" fill="#95B1EF"/>
<path d="M518.929 240.692C534.748 237.748 548.732 252.957 543.727 268.249V268.249C536.613 289.987 518.092 304.445 497.362 304.445H413.894C396.019 304.445 380.562 290.531 376.775 271.028V271.028C374.554 259.598 384.533 249.379 396.148 250.209C399.844 250.474 403.578 250.666 407.334 250.793C447.249 252.147 489.761 246.122 518.929 240.692Z" fill="#BDD1F9"/>
<path d="M418.91 286.568C421.344 289.378 417.612 304.445 413.894 304.445V304.445C396.019 304.445 380.562 290.531 376.775 271.028L376.127 267.696C374.219 257.871 382.79 249.107 392.764 249.946C395.764 250.199 398.792 250.402 401.84 250.559C404.852 250.714 407.177 253.264 407.331 256.276C407.719 263.892 409.901 276.174 418.91 286.568Z" fill="#AEC3FF"/>
<path d="M427.267 252.451C417.601 252.451 408.915 252.13 401.698 251.709C381.431 250.532 368.028 248.349 367.895 248.327C366.843 248.154 366.116 247.06 366.27 245.886C366.425 244.711 367.405 243.899 368.457 244.072C368.588 244.094 381.852 246.253 401.95 247.415C420.483 248.49 448.784 248.913 478.374 244.838C507.997 240.758 528.3 236.714 540.118 234.039C552.922 231.141 558.796 229.183 558.853 229.164C559.872 228.821 560.946 229.465 561.253 230.603C561.56 231.741 560.983 232.94 559.964 233.283C559.724 233.363 553.926 235.299 540.987 238.231C529.091 240.925 508.652 245.001 478.844 249.105C460.495 251.639 442.642 252.451 427.267 252.451Z" fill="#95B1EF"/>
<path d="M265.106 145.716V122.347C265.106 107.049 252.704 94.6477 237.406 94.6477C222.108 94.6477 209.707 107.049 209.707 122.347V145.716C209.707 161.014 222.108 173.416 237.406 173.416C252.704 173.416 265.106 161.014 265.106 145.716Z" fill="#99B9FF"/>
<path d="M262.861 145.8V122.565C262.861 108.507 251.464 97.1108 237.406 97.1108C223.348 97.1108 211.952 108.507 211.952 122.565V145.8C211.952 159.858 223.348 171.254 237.406 171.254C251.464 171.254 262.861 159.858 262.861 145.8Z" fill="#BDD1F9"/>
<path d="M137.701 277.065V251.443C137.701 232.539 122.376 217.215 103.473 217.215C84.5701 217.215 69.2461 232.539 69.2461 251.443V277.065C69.2461 295.968 84.5701 311.292 103.473 311.292C122.376 311.292 137.701 295.968 137.701 277.065Z" fill="#BDD1F9"/>
<path d="M137.062 231.243H69.8844C69.5319 231.243 69.2461 231.529 69.2461 231.881C69.2461 232.234 69.5319 232.519 69.8844 232.519H137.062C137.415 232.519 137.701 232.234 137.701 231.881C137.701 231.529 137.415 231.243 137.062 231.243Z" fill="#AEC3FF"/>
<path d="M89.4992 224.57C89.4992 227.568 87.0688 229.998 84.0708 229.998H76.7326C73.7346 229.998 71.3042 227.568 71.3042 224.57V224.57C71.3042 221.572 73.7346 219.141 76.7326 219.141H84.0708C87.0688 219.141 89.4992 221.572 89.4992 224.57V224.57ZM71.5351 224.567C71.5351 227.424 73.8512 229.74 76.7082 229.74H84.0995C86.9566 229.74 89.2727 227.424 89.2727 224.567V224.567C89.2727 221.71 86.9566 219.394 84.0995 219.394H76.7082C73.8512 219.394 71.5351 221.71 71.5351 224.567V224.567Z" fill="#AEC3FF"/>
<path d="M99.4004 224.568C99.4004 222.557 100.86 220.928 102.661 220.928C104.462 220.928 105.921 222.557 105.921 224.568C105.921 226.579 104.462 228.208 102.661 228.208C100.86 228.208 99.4004 226.579 99.4004 224.568Z" fill="#AEC3FF"/>
<path d="M108.21 224.568C108.21 222.929 109.4 221.599 110.868 221.599C112.336 221.599 113.525 222.927 113.525 224.568C113.525 226.207 112.336 227.535 110.868 227.535C109.4 227.535 108.21 226.207 108.21 224.568Z" fill="#AEC3FF"/>
<path d="M128.77 221.079H121.178C119.251 221.079 117.689 222.642 117.689 224.569C117.689 226.496 119.251 228.058 121.178 228.058H128.77C130.698 228.058 132.26 226.496 132.26 224.569C132.26 222.642 130.698 221.079 128.77 221.079Z" fill="#AEC3FF"/>
<path d="M102.661 295.796C116.669 295.796 128.024 283.118 128.024 267.48C128.024 251.842 116.669 239.165 102.661 239.165C88.6536 239.165 77.2983 251.842 77.2983 267.48C77.2983 283.118 88.6536 295.796 102.661 295.796Z" fill="#AEC3FF"/>
<path d="M103.684 290.223C114.934 289.602 123.603 278.916 123.047 266.356C122.49 253.796 112.919 244.118 101.669 244.739C90.4189 245.36 81.7499 256.046 82.3063 268.606C82.8628 281.166 92.4339 290.844 103.684 290.223Z" fill="#95B1EF"/>
<path d="M122.712 273.603H121.342C119.645 273.603 118.258 272.054 118.258 270.16V267.099C118.258 265.204 119.645 263.656 121.342 263.656H122.712C124.408 263.656 125.796 265.204 125.796 267.099V270.16C125.796 272.052 124.408 273.603 122.712 273.603Z" fill="#AEC3FF"/>
<path d="M278.375 273.131V253.944C278.375 232.955 261.361 215.941 240.372 215.941C219.384 215.941 202.37 232.955 202.37 253.944V273.131C202.37 294.119 219.384 311.134 240.372 311.134C261.361 311.134 278.375 294.12 278.375 273.131Z" fill="#BDD1F9"/>
<path d="M277.812 245.142H202.933C202.622 245.142 202.37 245.394 202.37 245.705C202.37 246.015 202.622 246.267 202.933 246.267H277.812C278.123 246.267 278.375 246.015 278.375 245.705C278.375 245.394 278.123 245.142 277.812 245.142Z" fill="#AEC3FF"/>
<path d="M247.051 221.079H234.743C234.338 221.079 234.005 220.707 234.005 220.254V220.016C234.005 219.564 234.338 219.192 234.743 219.192H247.051C247.456 219.192 247.789 219.564 247.789 220.016V220.254C247.789 220.709 247.458 221.079 247.051 221.079Z" fill="#AEC3FF"/>
<path d="M277.812 279.687H202.933C202.622 279.687 202.37 279.939 202.37 280.249C202.37 280.56 202.622 280.812 202.933 280.812H277.812C278.123 280.812 278.375 280.56 278.375 280.249C278.375 279.939 278.123 279.687 277.812 279.687Z" fill="#AEC3FF"/>
<path d="M247.051 250.484H234.743C234.338 250.484 234.005 250.112 234.005 249.659V249.421C234.005 248.966 234.338 248.597 234.743 248.597H247.051C247.456 248.597 247.789 248.969 247.789 249.421V249.659C247.789 250.112 247.458 250.484 247.051 250.484Z" fill="#AEC3FF"/>
<path d="M247.051 286.568H234.743C234.338 286.568 234.005 286.196 234.005 285.744V285.505C234.005 285.053 234.338 284.681 234.743 284.681H247.051C247.456 284.681 247.789 285.053 247.789 285.505V285.744C247.789 286.198 247.458 286.568 247.051 286.568Z" fill="#AEC3FF"/>
<path d="M279.451 210.976H200.753C199.03 210.976 197.634 212.372 197.634 214.094C197.634 215.817 199.03 217.213 200.753 217.213H279.451C281.173 217.213 282.57 215.817 282.57 214.094C282.57 212.372 281.173 210.976 279.451 210.976Z" fill="#95B1EF"/>
<path d="M236.379 197.383C235.444 197.383 234.682 196.53 234.682 195.489V178.247C234.682 177.204 235.447 176.353 236.379 176.353C237.313 176.353 238.075 177.206 238.075 178.247V195.489C238.075 196.53 237.313 197.383 236.379 197.383Z" fill="#95B1EF"/>
<path d="M227.251 189.343C227.331 188.497 227.869 187.758 228.679 187.501C230.004 187.081 231.987 186.625 232.867 187.292C234.25 188.34 232.438 191.589 231.341 191.803C230.868 191.895 230.007 191.849 229.179 191.766C227.974 191.646 227.136 190.549 227.251 189.343V189.343Z" fill="#FFB27D"/>
<path d="M228.044 190.161V190.161C228.639 188.35 227.076 186.997 225.216 186.577C220.752 185.57 212.649 183.668 211.637 182.915C210.618 182.158 203.652 171.6 199.89 165.838C198.412 163.574 195.797 162.324 193.108 162.603V162.603C186.989 163.239 184.461 170.761 188.978 174.937C196.051 181.477 204.12 188.841 206.057 190.22C210.477 193.365 219.537 192.855 223.942 192.378C225.625 192.196 227.515 191.77 228.044 190.161V190.161Z" fill="#ED7D2B"/>
<path d="M233.103 185.614L228.114 192.367C227.802 192.79 227.862 193.421 228.249 193.777C228.635 194.133 229.202 194.079 229.514 193.656L234.503 186.902C234.815 186.48 234.754 185.848 234.368 185.493C233.981 185.137 233.415 185.191 233.103 185.614Z" fill="#35488B"/>
<path d="M235.207 181.916C235.203 181.923 235.207 181.916 235.203 181.923C234.815 182.609 234.669 183.489 235.174 184.071C235.85 184.849 236.66 184.547 237.259 183.735C237.261 183.733 237.411 183.528 237.416 183.523C237.623 183.239 238.18 183.857 238.143 184.221C238.078 184.878 237.812 185.517 237.337 186.021C236.47 186.942 235.122 187.076 234.12 186.344C232.792 185.374 232.546 183.365 233.526 182.035C233.8 181.663 234.14 181.388 234.51 181.211C234.87 181.041 235.421 181.551 235.207 181.916Z" fill="#35488B"/>
<path d="M227.527 197.636C227.531 197.629 227.527 197.636 227.531 197.629C227.919 196.946 228.065 196.063 227.56 195.482C226.945 194.773 226.218 194.96 225.641 195.612C225.525 195.743 225.435 195.898 225.319 196.029V196.029C225.112 196.313 224.554 195.696 224.591 195.331C224.656 194.674 224.922 194.035 225.397 193.532C226.266 192.61 227.612 192.476 228.614 193.208C229.942 194.178 230.189 196.187 229.208 197.517C228.934 197.889 228.594 198.164 228.224 198.341C227.865 198.511 227.314 198.001 227.527 197.636Z" fill="#35488B"/>
<path d="M233.873 189.73C234.761 187.942 230.52 186.54 230.405 188.532V188.532C230.328 189.853 230.143 191.881 231.341 191.803C232.007 191.76 233.338 190.808 233.873 189.73Z" fill="#FFB27D"/>
<path d="M257.954 188.484C255.295 188.944 252.723 181.332 255.364 180.775C257.991 180.222 260.433 180.712 262.11 183.181C263.63 185.418 260.328 188.073 257.954 188.484V188.484Z" fill="#758BEA"/>
<path d="M247.39 197.383C257.325 197.383 263.722 205.782 254.621 209.767V209.767C252.904 210.519 250.413 210.995 248.539 210.995H226.693C224.818 210.995 222.327 210.519 220.611 209.767V209.767C211.512 205.781 217.908 197.383 227.841 197.383H247.39Z" fill="#BDD1F9"/>
<path d="M266.749 197.383H208.485C207.812 197.383 207.263 196.768 207.263 196.019C207.263 195.268 207.812 194.655 208.485 194.655H266.751C267.424 194.655 267.973 195.268 267.973 196.019C267.971 196.768 267.422 197.383 266.749 197.383Z" fill="#A2C5FC"/>
<path d="M243.239 204.595C244.547 203.706 247.715 205.007 247.118 206.471C246.823 207.195 246.392 207.811 245.772 208.197C242.995 209.925 240.804 206.251 243.239 204.595V204.595Z" fill="#758BEA"/>
<path d="M250.928 207.059C251.354 204.674 257.384 200.005 258.415 202.198V202.198C261.428 208.6 263.819 217.587 257.666 218.966C251.513 220.344 248.658 216.841 250.57 208.775C250.711 208.18 250.83 207.608 250.928 207.059Z" fill="#758BEA"/>
<path d="M137.795 297.038C137.732 297.129 137.662 297.214 137.587 297.296C137.081 297.854 135.069 300.211 135.529 301.947C136.056 303.929 138.489 305.252 138.817 307.676C139.146 310.1 140.462 311.421 141.647 311.421C142.143 311.421 143.212 311.421 144.289 311.421C146.131 311.421 147.846 309.639 146.057 309.201V309.201C143.953 308.688 143.158 305.84 143.291 303.195C143.353 301.95 143.312 300.51 143.252 299.334C143.182 297.946 142.199 296.791 140.855 296.439L140.016 296.218C139.177 295.998 138.29 296.325 137.795 297.038V297.038Z" fill="#2C3A64"/>
<path d="M174.411 302.017C171.777 302.885 170.527 305.796 170.632 308.567V308.567C170.703 310.448 172.327 311.316 174.21 311.316H182.87C184.943 311.316 186.243 309.227 184.202 308.858V308.858C181.77 308.418 177.494 306.801 176.771 303.205C176.486 301.791 175.501 301.658 174.411 302.017Z" fill="#2C3A64"/>
<path d="M173.052 213.336C178.86 213.738 183.238 218.775 182.825 224.582C182.542 228.569 182.2 233.405 181.837 238.577C180.561 256.752 179.026 279.081 178.873 283.31C178.69 288.408 178.128 295.625 177.8 299.565C177.647 301.41 178.169 302.167 176.606 303.16V303.16C173.929 304.86 169.554 302.11 168.857 299.016C167.443 292.734 165.179 281.334 164.331 269.501C164.311 269.209 164.291 268.918 164.272 268.623C163.508 256.979 162.472 237.033 161.832 224.328C161.515 218.037 166.769 212.902 173.052 213.336V213.336Z" fill="#35488B"/>
<path d="M173.052 213.336C178.86 213.738 183.238 218.775 182.825 224.582C182.584 227.984 182.299 232.005 181.996 236.325C181.891 237.806 181.458 239.247 180.726 240.54L164.764 268.736C164.635 268.963 164.289 268.884 164.272 268.623V268.623C163.508 256.979 162.472 237.033 161.832 224.328C161.515 218.037 166.769 212.902 173.052 213.336V213.336Z" fill="#2C3A64"/>
<path d="M174.348 213.623C177.394 214.585 179.028 217.882 177.932 220.882V220.882C175.004 228.862 169.281 244.196 163.611 257.783C160.985 264.081 158.369 270.002 156.049 274.644C147.929 290.889 144.595 297.092 143.808 298.532C143.699 298.731 143.459 298.808 143.254 298.709V298.709C142.271 298.247 139.549 296.902 138.303 295.669V295.669C137.804 295.172 137.734 294.455 137.809 293.755C138.457 287.718 141.96 257.331 147.664 249.312C151.247 244.273 155.457 229.154 155.655 223.87C155.742 221.538 156.004 218.205 156.267 215.199C156.502 212.486 156.746 210.047 156.864 208.868V208.868C156.904 208.482 157.288 208.229 157.658 208.346L173.571 213.378L174.348 213.623Z" fill="#35488B"/>
<path d="M163.551 212.685C166.918 214.728 165.315 219.084 161.517 218.044V218.044C159.917 217.608 158.656 216.87 157.693 216.214C156.799 215.604 156.36 214.115 156.459 213.037V213.037C156.658 210.881 158.983 210.076 160.863 211.15L163.551 212.685V212.685Z" fill="#2C3A64"/>
<path d="M193.912 147.326C190.999 150.634 188.439 156.089 191.178 159.544C191.87 160.418 192.61 161.267 193.381 162.029C195.289 163.916 197.731 162.168 196.794 159.653V159.653C196.498 158.86 196.633 157.948 197.116 157.282C197.347 156.964 197.565 156.66 197.767 156.373V156.373C199.215 154.301 199.449 151.676 198.65 149.278L197.953 147.184L197.87 146.935C197.415 145.568 195.446 145.401 194.564 146.54V146.54C194.349 146.815 194.131 147.077 193.912 147.326Z" fill="#FFB27D"/>
<path d="M195.976 146.671C194.735 146.456 194.459 147.46 194.555 148.716C194.664 150.156 195.024 152.122 196.052 154.022C196.772 155.352 199 154.601 199.757 153.292V153.292C200.09 152.716 199.782 152.678 199.572 152.047L198.359 148.406C198.103 147.636 196.775 146.81 195.976 146.671V146.671Z" fill="#ED975D"/>
<path d="M202.958 153.376C202.104 154.083 200.937 153.681 199.98 153.121C197.583 151.717 193.253 148.467 194.886 143.998C197.101 137.929 197.46 133.348 203.162 135.534C208.862 137.718 209.099 140.526 208.801 142.754C208.556 144.565 205.39 151.364 202.958 153.376Z" fill="#FFB27D"/>
<path d="M196.428 179.592C195.474 182.668 194.221 185.821 192.758 188.802C192.47 189.391 192.187 189.972 191.924 190.548C191.745 190.93 191.575 191.312 191.407 191.689C188.204 198.903 186.727 205.155 186.089 210.066C185.967 211.012 185.873 211.905 185.808 212.748C185.518 216.352 155.338 204.62 156.311 199.579C156.954 196.26 157.829 192.773 158.65 189.802C159.453 186.881 160.199 184.459 160.603 183.181C160.81 182.527 161.038 181.878 161.287 181.239C166.909 166.857 174.711 159.038 180.818 154.868C181.948 154.092 183.02 153.443 184.011 152.905V152.905C187.333 151.086 190.908 153.508 193.066 156.62C193.429 157.142 193.836 157.656 194.292 158.142C195.905 159.861 197.498 161.675 198.006 163.976C198.051 164.176 198.078 164.299 198.079 164.302C199.002 168.003 198.266 173.671 196.428 179.592Z" fill="#F99746"/>
<path d="M193.544 132.84C193.594 132.769 193.635 132.724 193.582 132.655V132.655C193.444 132.473 193.274 132.21 193.503 132.216V132.216C193.627 132.219 193.865 132.17 193.914 132.056C194.105 131.602 194.432 131.031 194.934 130.702C195.058 130.62 195.311 130.722 195.212 130.833V130.833C195.13 130.926 195.141 131.195 195.248 131.134C196.862 130.224 199.793 130.112 206.444 132.587C215.838 136.081 211.144 142.168 209.722 142.656C208.298 143.145 205.678 140.013 203.319 139.585C200.962 139.157 199.686 142.824 198.789 143.128C197.889 143.432 198.401 142.598 197.46 141.761C196.519 140.925 195.979 142.892 195.999 144.271C196.003 144.567 195.922 144.86 195.791 145.138C195.1 146.613 193.823 146.221 193.108 144.757V144.757C192.032 142.554 192.324 134.552 193.352 133.112C193.416 133.023 193.479 132.932 193.544 132.84Z" fill="#2B478B"/>
<path d="M186.103 184.212C183.682 181.261 179.64 183.196 181.117 186.716C181.461 187.535 181.838 188.343 182.249 189.121C184.748 193.849 186.229 189.736 186.845 187.186C187.098 186.136 186.788 185.048 186.103 184.212V184.212Z" fill="#ED7D2B"/>
<path d="M190.181 189.372C190.954 190.835 191.002 192.568 190.382 194.101C187.878 200.301 186.652 205.711 186.086 210.066C185.964 211.012 185.871 211.905 185.805 212.748C185.516 216.352 185.681 219.005 185.801 220.512C186.113 224.446 159.63 216.85 156.087 211.163C155.125 209.616 155.234 206.213 155.84 202.263C156.911 195.27 164.331 191.361 171.337 190.376C174.404 189.945 177.725 189.026 180.938 187.277C184.125 185.541 188.485 186.164 190.181 189.372V189.372Z" fill="#35488B"/>
<path d="M193.363 167.618C193.417 168.549 192.252 168.797 191.87 167.946V167.946C191.811 167.814 191.783 167.673 191.783 167.528C191.781 166.377 191.6 160.925 188.537 157.581C187.384 156.32 185.938 155.492 184.215 155.1C183.282 154.887 182.907 153.51 183.744 153.046V153.046C183.929 152.943 184.118 152.921 184.326 152.963C186.53 153.406 188.384 154.448 189.874 156.078C192.397 158.839 193.153 164.048 193.363 167.618Z" fill="#2C3A64"/>
<path d="M215.982 200.394C212.634 199.886 217.766 195.974 221.13 195.594C221.533 195.548 221.846 195.529 222.007 195.55C222.862 195.662 225.801 197.22 225.829 197.493C225.857 197.765 225.705 197.979 225.186 197.991C224.666 198.003 222.971 197.668 223.069 197.904C223.167 198.14 228.035 199.479 228.044 200.586C228.05 201.692 225.271 203.603 222.991 203.62C220.711 203.637 216.363 200.45 215.982 200.394V200.394Z" fill="#FFB27D"/>
<path d="M216.966 198.811V198.811C217.115 197.122 215.146 196.208 213.531 195.693C209.151 194.298 200.393 191.412 199.449 190.349C198.333 189.092 193.642 171.29 192.55 167.104C192.396 166.514 192.259 165.931 192.097 165.343C191.453 163.016 189.403 156.848 185.581 156.03C181.476 155.15 178.64 157.418 176.782 160.076C174.569 163.244 174.354 167.611 176.19 171.067C180.311 178.818 188.624 194.21 191.053 196.839C195.158 201.285 207.413 201.656 213.065 201.577C214.994 201.551 216.796 200.732 216.966 198.811V198.811Z" fill="#F99746"/>
<path d="M498.27 146.487C500.549 143.973 504.263 143.194 507.65 143.404C509.708 143.532 512.017 144.194 513.794 146.119C517.943 150.61 517.126 155.765 523.044 155.364C528.962 154.962 530.314 157.391 529.55 161.192C528.785 164.992 536.11 163.923 538.325 168.56C540.54 173.197 540.856 181.734 529.43 181.296C518.004 180.856 512.938 173.992 508.046 176.844C503.155 179.694 495.087 175.108 497.204 171.113C499.321 167.118 495.214 168.195 494.488 160.035C493.999 154.504 495.631 149.397 498.27 146.487Z" fill="#163560"/>
<path d="M495.508 167.293C493.639 167.737 493.18 164.894 493.846 163.091C494.121 162.346 494.497 161.608 495.003 161.097C496.454 159.628 498.152 158.955 498.523 159.947C498.895 160.939 497.817 163.718 497.453 164.598C497.09 165.479 497.072 166.918 495.508 167.293V167.293Z" fill="#FFB27D"/>
<path d="M497.089 165.481L494.77 163.402C494.425 163.094 494.369 162.532 494.645 162.145L498.831 156.322C499.108 155.938 499.611 155.874 499.957 156.183L502.277 158.262C502.621 158.571 502.678 159.133 502.401 159.519L498.215 165.343C497.938 165.727 497.435 165.79 497.089 165.481Z" fill="#F99746"/>
<path d="M497.063 164.935L495.251 163.31C494.955 163.045 494.907 162.561 495.144 162.231L499.017 156.845C499.254 156.514 499.687 156.461 499.984 156.726L501.796 158.35C502.092 158.615 502.14 159.099 501.902 159.43L498.03 164.815C497.793 165.149 497.359 165.202 497.063 164.935Z" fill="#8C9DF4"/>
<path d="M520.613 175.412C518.51 171.928 515.111 168.912 511.045 169.068C510.024 169.107 509.095 169.258 507.511 169.32C507.27 169.33 507.031 169.34 506.791 169.358C505.617 169.447 501.812 169.788 499.123 170.646V170.646C498.668 170.791 495.767 168.027 496.008 167.615V167.615C496.111 167.438 496.054 167.208 495.879 167.104L494.274 166.148C493.377 165.615 492.24 165.76 491.538 166.532C487.948 170.475 477.779 182.398 480.937 187.638C484.115 192.912 496.682 181.974 496.384 183.543C496.379 183.562 496.377 183.579 496.375 183.594C495.715 188.729 498.122 195.601 499.552 199.111C500.17 200.627 501.176 201.939 502.407 203.019L503.896 204.323C507.445 207.433 512.71 207.561 516.405 204.625L519.071 202.507C519.071 202.507 519.072 202.507 519.073 202.507V202.507C519.074 202.507 519.074 202.506 519.075 202.506L519.633 202.281C519.751 202.234 519.866 202.179 519.963 202.097C520.355 201.766 521.389 200.611 521.746 197.446C521.801 196.96 522.117 192.802 522.43 188.613C522.54 187.137 522.65 185.657 522.748 184.333C522.979 181.21 522.232 178.093 520.613 175.412V175.412Z" fill="#8C9DF4"/>
<path d="M501.239 203.722C501.239 203.722 501.239 203.722 501.239 203.722C501.237 203.729 497.671 215.374 498.305 223.899C498.688 229.054 504.887 265.705 505.235 268.083C505.477 269.743 507.984 286.091 509.268 294.462C509.766 297.706 507.759 304.65 510.889 303.664V303.664V303.664C513.002 302.999 513.96 300.911 514.101 298.701C514.821 287.369 516.938 250.701 515.171 236.106C513.874 225.387 513.368 215.563 513.171 209.612C513.063 206.354 510.406 203.72 507.147 203.72H501.241C501.24 203.72 501.239 203.721 501.239 203.722V203.722Z" fill="#ED7D2B"/>
<path d="M512.782 203.943C517.056 203.53 521.255 205.482 523.23 209.294C524.94 212.596 526.695 216.677 527 219.982C527.62 226.722 527.973 250.394 529.295 256.964C530.556 263.229 535.031 275.017 535.444 293.867C535.484 295.711 535.124 297.781 533.412 298.468V298.468C532.913 298.667 533.142 297.668 532.495 297.833C531.21 298.162 520.755 268.859 520.169 267.541C516.885 260.161 510.447 234.569 503.242 220.989C502.496 219.582 502.591 216.368 502.941 213.169C503.491 208.125 507.732 204.432 512.782 203.943V203.943Z" fill="#F99746"/>
<path d="M509.776 171.842C510.963 171.242 511.482 170.257 511.222 168.825C510.861 166.819 510.211 164.937 510.081 162.103C510.071 161.893 509.873 161.743 509.67 161.795V161.795L507.492 162.362C504.889 163.039 502.964 165.484 503.306 168.151V168.151C503.486 171.135 504.133 174.694 509.776 171.842Z" fill="#FFB27D"/>
<path d="M505.009 163.009C503.858 163.309 503.021 163.548 503.113 164.734V164.734C503.218 166.104 504.5 168.054 505.686 167.36C506.341 166.977 506.908 166.474 507.398 165.912C508.725 164.39 507.048 162.479 505.093 162.987L505.009 163.009Z" fill="#E8945B"/>
<path d="M500.582 164.57C501.142 165.58 502.403 165.685 503.544 165.506C506.117 165.104 510.651 163.766 510.523 159.336C510.344 153.163 511.37 148.985 505.692 148.832C500.014 148.679 498.982 151.074 498.592 153.151C498.278 154.82 499.06 161.826 500.582 164.57Z" fill="#FFB27D"/>
<path d="M504.138 147.624C501.929 147.493 501.665 150.318 502.709 152.268C503.986 154.653 506.023 157.622 508.483 158.23C508.763 158.3 509.033 158.359 509.292 158.409C511.962 158.922 513.593 157.429 512.183 155.104V155.104C511.12 153.351 509.159 149.345 507.287 148.509C506.282 148.06 505.162 147.684 504.138 147.624Z" fill="#163560"/>
<path d="M499.215 148.199C500.751 146.742 500.5 149.469 499.605 151.388V151.388V151.388C499.1 152.471 497.336 152.491 497.544 151.314C497.672 150.588 497.946 149.843 498.44 149.129C498.709 148.74 498.967 148.435 499.215 148.199Z" fill="#163560"/>
<path d="M518.443 202.279C518.83 202.475 519.288 202.419 519.691 202.258V202.258C519.77 202.226 519.847 202.189 519.914 202.137C520.261 201.865 521.373 200.752 521.746 197.446C521.775 197.183 521.881 195.845 522.022 194.008C522.286 190.563 519.51 183.979 518.063 187.117V187.117C517.039 189.335 519.402 193.522 518.536 195.995C517.738 198.265 516.406 201.249 518.443 202.279Z" fill="#6980E2"/>
<path d="M500.767 205.196C500.103 203.649 502.091 202.429 503.738 202.777C504.334 202.903 505.012 202.99 505.773 203.007C508.932 203.078 515.642 202.357 518.678 202.007C519.58 201.903 520.296 201.92 520.472 202.81V202.81C520.635 203.632 520.12 204.91 519.305 205.102C515.939 205.892 507.088 207.609 501.243 205.448C500.949 205.34 500.89 205.483 500.767 205.196V205.196Z" fill="#233862"/>
<path d="M504.775 207.007C503.73 207.007 502.878 205.932 502.878 204.61C502.878 203.287 503.73 202.215 504.775 202.215C505.821 202.215 506.672 203.289 506.672 204.61C506.672 205.93 505.821 207.007 504.775 207.007ZM504.775 202.915C504.076 202.915 503.508 203.676 503.508 204.61C503.508 205.543 504.076 206.304 504.775 206.304C505.475 206.304 506.043 205.543 506.043 204.61C506.043 203.676 505.475 202.915 504.775 202.915Z" fill="white"/>
<path d="M520.221 268.841C518.981 265.563 518.731 262.517 522.089 261.514V261.514C525.917 260.371 532.425 261.937 533.061 265.881C534.683 275.946 537.415 292.77 538.711 300.065C539.007 301.738 539.761 304.272 540.05 305.779V305.779C540.646 308.88 537.755 311.129 534.597 311.129H529.412C526.762 311.129 524.874 308.403 527.366 307.501V307.501C530.075 306.521 532.904 304.423 532.832 303.115C532.779 302.134 524.412 279.917 520.221 268.841Z" fill="#FFB93E"/>
<path d="M504.424 270.392C503.833 266.775 506.605 263.482 510.27 263.452V263.452C513.648 263.423 516.373 266.197 516.279 269.573C515.989 280 515.486 300.249 515.857 303.064V303.064C516.437 307.465 512.804 311.132 508.364 311.132H504.419C501.614 311.132 499.631 308.655 501.965 307.1V307.1C504.675 305.296 507.748 306.847 508.774 304.316C509.52 302.465 506.243 281.533 504.424 270.392Z" fill="#FFB93E"/>
<path d="M502.238 161.989C502.301 162.449 502.079 162.87 501.739 162.928C501.4 162.986 501.075 162.661 501.01 162.201C500.947 161.741 501.169 161.321 501.509 161.262C501.848 161.204 502.175 161.53 502.238 161.989Z" fill="white"/>
<path d="M546.387 190.378C546.278 190.086 546.292 189.762 546.44 189.488C546.93 188.577 548.15 186.537 549.303 186.373C550.79 186.162 553.486 185.016 553.314 185.656C553.142 186.295 551.435 186.531 551.298 186.918C551.163 187.304 553.916 187.587 554.695 187.57C555.475 187.552 557.294 187.307 557.274 187.745C557.254 188.182 554.164 190.3 551.864 190.283C550.501 190.273 548.983 190.716 547.973 191.079C547.343 191.305 546.622 191.005 546.387 190.378V190.378Z" fill="#FFB27D"/>
<path d="M517.63 181.583C517.67 183.125 518.086 184.631 518.889 185.948C521.482 190.202 527.695 199.8 531.615 200.924C534.766 201.826 542.771 196.624 545.979 194.41C546.868 193.797 547.639 191.931 547.48 190.863V190.863C547.212 189.046 545.616 189.2 543.83 189.628C540.233 190.491 534.532 191.791 533.808 191.54C529.511 190.057 525.645 178.045 523.103 174.031V174.031C521.113 170.89 517.419 173.483 517.516 177.2L517.63 181.583Z" fill="#8C9DF4"/>
<path d="M488.968 177.658C489.031 177.582 489.103 177.514 489.182 177.453L489.471 177.231C490.654 176.323 492.279 177.558 491.72 178.941V178.941C491.517 179.444 491.052 179.794 490.512 179.849L490.149 179.886C488.934 180.011 488.182 178.594 488.968 177.658V177.658Z" fill="#8C9DF4"/>
<path d="M287.316 277.746C293.581 275.967 282.339 266.317 281.822 272.809C281.801 273.084 281.788 273.363 281.786 273.648C281.786 273.711 281.786 273.772 281.791 273.835C281.839 274.546 282.348 279.159 287.316 277.746V277.746Z" fill="#8C9DF4"/>
<path d="M284.186 259.222C284.387 259.612 284.453 257.515 284.308 257.929V257.929C284.086 258.557 284.057 258.97 284.186 259.222Z" fill="#8C9DF4"/>
<path d="M308.849 265.061C308.808 263.433 310.687 262.696 311.282 264.212C312.235 266.64 312.745 269.367 311.674 271.558C311.317 272.288 310.565 273.554 308.505 272.725C306.445 271.894 308.943 268.876 308.849 265.061V265.061Z" fill="#8C9DF4"/>
<path d="M302.311 256.451C303.984 256.745 307.876 255.447 308.159 255.417V255.417C310.66 255.15 306.951 252.084 304.466 251.693C304.167 251.646 303.934 251.621 303.814 251.632C303.688 251.643 303.514 251.675 303.314 251.721C303.118 251.766 303.049 252.004 303.185 252.152V252.152C303.333 252.313 303.237 252.578 303.021 252.613C302.123 252.759 300.37 253.121 300.344 253.73C300.311 254.552 300.849 256.193 302.311 256.451Z" fill="#FFB27D"/>
<path d="M303.86 252.214C303.835 251.896 303.548 251.665 303.233 251.708L302.342 251.829C301.646 251.923 301.396 252.473 302.089 252.589C302.643 252.683 303.242 252.708 303.296 252.913C303.371 253.205 303.659 252.752 303.798 252.509C303.849 252.419 303.869 252.316 303.86 252.214V252.214Z" fill="#FFB27D"/>
<path d="M328.617 252.343C328.726 252.145 328.569 251.908 328.345 251.937C327.348 252.066 325.319 252.37 325.496 252.694C325.598 252.883 325.964 253.025 326.341 253.125C326.958 253.288 327.602 253.103 328.12 252.732L328.535 252.434C328.569 252.41 328.597 252.379 328.617 252.343V252.343Z" fill="#FFB27D"/>
<path d="M307.499 253.818V253.818C306.987 252.164 308.489 250.952 310.018 250.139C314.613 247.696 324.609 242.359 325.648 241.618C326.829 240.777 333.898 226.605 335.696 222.976C335.975 222.412 336.236 221.849 336.526 221.292C337.553 219.323 340.38 214.594 343.787 214.716C347.524 214.847 349.6 217.449 350.752 220.175C352.124 223.423 351.545 227.282 349.336 229.893C344.375 235.754 334.415 247.359 331.834 249.12C327.511 252.07 316.691 254.596 311.602 255.665C309.897 256.023 308.015 255.482 307.499 253.818V253.818Z" fill="#E58638"/>
<path d="M309.924 273.917C312.424 277.134 317.697 279.213 327.87 279.74C328.687 279.784 329.508 279.818 330.334 279.847C331.183 279.876 332.035 279.896 332.886 279.908C335.65 279.952 338.401 279.915 341.023 279.818C343.565 279.721 345.987 279.565 348.18 279.361C352.471 278.962 355.894 278.384 357.663 277.72C358.192 277.52 358.573 277.316 358.787 277.102C358.968 276.922 359.116 276.708 359.227 276.467C359.869 275.14 359.534 272.961 358.759 270.561C357.628 267.067 355.555 263.108 354.159 260.628C353.878 260.132 353.629 259.699 353.416 259.34V259.34C353.001 258.63 352.208 258.241 351.391 258.334C349.54 258.544 345.913 258.979 341.467 259.622C340.141 259.814 338.738 260.025 337.29 260.254C323.303 262.462 309.366 266.432 309.379 271.699C309.381 272.499 309.335 273.161 309.924 273.917Z" fill="#2B478B"/>
<path d="M332.391 277.368C331.427 277.864 331.802 279.892 332.886 279.908V279.908C335.172 279.944 337.449 279.925 339.652 279.863C340.46 279.84 341.145 279.268 341.32 278.479L341.379 278.217C341.798 276.333 337.924 274.126 336.29 275.154C334.96 275.991 333.62 276.736 332.391 277.368Z" fill="#2C3A64"/>
<path d="M335.305 307.876C335.682 310.33 333.921 311.886 331.438 311.886H324.582C323.294 311.886 322.647 310.559 323.912 310.312V310.312C326.049 309.894 329.756 308.605 329.281 305.162C329.255 304.97 329.245 304.787 329.251 304.613C329.379 300.971 334.656 303.856 335.238 307.454C335.261 307.596 335.283 307.737 335.305 307.876Z" fill="#2C3A64"/>
<path d="M320.63 268.684C314.091 264.864 312.236 277.791 315.95 284.392C319.126 290.037 322.824 296.66 325.28 301.223C326.978 304.377 329.365 307.236 332.511 305.524V305.524C334.226 304.591 334.707 301.439 334.089 299.588C331.503 291.836 324.209 270.777 320.63 268.684V268.684Z" fill="#2B478B"/>
<path d="M337.269 206.772C339.426 209.793 341.273 214.641 338.557 217.172C337.823 217.856 337.044 218.498 336.244 219.031C334.626 220.11 333.063 218.544 333.87 216.775V216.775C334.401 215.603 334.39 214.22 333.809 213.077C333.8 213.06 333.791 213.043 333.782 213.026V213.026C332.767 211.019 332.885 208.677 333.882 206.662L334.653 205.104C334.679 205.051 334.699 204.994 334.71 204.935V204.935C334.836 204.269 335.824 204.188 336.116 204.8C336.265 205.114 336.419 205.412 336.579 205.692C336.799 206.078 337.031 206.438 337.269 206.772Z" fill="#FFB27D"/>
<path d="M336.805 205.643C336.819 205.695 336.81 205.67 336.818 205.724C336.889 206.197 337.175 208.762 335.561 211.156C334.808 212.274 332.921 211.315 332.416 210.066V210.066C332.192 209.514 332.469 209.518 332.733 208.984L333.673 207.084C334.314 205.79 336.435 204.248 336.805 205.643V205.643Z" fill="#ED975D"/>
<path d="M330.086 212.137C330.982 212.75 332.07 212.222 332.919 211.547C334.884 209.985 338.155 206.678 336.327 203.063C333.791 198.054 333.023 194.11 328.277 196.72C323.531 199.329 323.605 201.804 324.086 203.705C324.47 205.221 327.772 210.554 330.086 212.137Z" fill="#FFB27D"/>
<path d="M336.385 193.183C336.333 193.127 336.312 193.044 336.358 192.982C336.36 192.98 336.363 192.977 336.365 192.974C336.487 192.818 336.554 192.601 336.358 192.634V192.634C336.251 192.651 336.037 192.638 335.983 192.543C335.771 192.173 335.43 191.718 334.962 191.494C334.845 191.438 334.641 191.562 334.738 191.648V191.648C334.818 191.718 334.835 191.951 334.736 191.911C333.24 191.314 330.678 191.579 325.125 194.563C317.293 198.772 321.987 203.489 323.276 203.737C324.565 203.985 326.534 200.931 328.545 200.267C330.555 199.601 332.032 202.636 332.844 202.789C333.656 202.942 333.129 202.278 333.865 201.435C334.602 200.591 335.268 202.234 335.388 203.438C335.395 203.512 335.407 203.586 335.423 203.658C335.755 205.186 337.438 204.977 337.953 203.501V203.501C338.67 201.449 337.618 194.517 336.579 193.391C336.515 193.323 336.451 193.253 336.385 193.183Z" fill="#2B478B"/>
<path d="M378.178 299.173C375.464 300.033 380.654 303.398 381.769 306.018V306.018C382.161 306.947 381.39 308.921 380.231 309.218V309.218C378.815 309.582 380.304 311.504 381.766 311.504H384.012C384.537 311.504 385.009 311.18 385.212 310.684C385.911 308.968 386.07 306.735 386.212 305.987C386.508 304.416 387.092 303.098 386.835 301.5C386.578 299.908 384.136 298.984 379.686 298.998C379.009 299.001 378.519 299.065 378.178 299.173Z" fill="#233862"/>
<path d="M365.118 267.699C361.381 272.12 333.945 262.975 336.245 260.645C336.83 260.054 336.63 259.342 336.867 258.389C338.007 253.866 335.739 246.129 334.768 243.131C334.541 242.435 334.385 241.995 334.356 241.908C333.428 239.109 332.712 236.193 332.241 233.378C331.338 227.972 331.353 222.946 332.59 219.868V219.868C332.604 219.841 332.625 219.822 332.653 219.812C333.526 219.52 334.332 219.033 335.068 218.426C339.532 214.748 345.023 211.414 349.262 215.349C354.104 219.843 359.747 227.625 362.748 240.712C362.763 240.777 362.776 240.842 362.788 240.907C362.858 241.294 363.128 242.814 363.452 244.946C363.452 244.947 363.453 244.947 363.453 244.947V244.947C363.454 244.947 363.454 244.948 363.454 244.948C363.568 245.709 363.69 246.55 363.811 247.444C364.443 252.059 364.809 257.978 365.184 262.386C365.199 262.539 365.21 262.695 365.225 262.853C365.412 264.745 365.739 266.962 365.118 267.699Z" fill="#F99746"/>
<path d="M341.828 271.434C342.712 266.832 347.094 263.784 351.765 264.169V264.169C357.482 264.64 363.541 265.647 364.526 267.792C364.853 268.502 364.624 270.299 363.988 272.781C363.643 274.123 363.179 275.666 362.616 277.345C359.736 285.942 365.247 295.825 374.199 297.262C375.195 297.421 376.07 297.567 376.787 297.688C378.164 297.921 379.96 299.543 380.247 300.909V300.909C380.769 303.401 378.471 304.334 375.963 304.768C375.476 304.853 374.957 304.945 374.412 305.043C363.779 306.954 350.828 310.884 342.8 310.884C341.045 310.884 339.73 309.491 339.196 307.673C339.196 307.672 339.196 307.671 339.196 307.67V307.67C339.196 307.67 339.196 307.669 339.195 307.668C336.931 299.979 339.8 281.99 341.828 271.434Z" fill="#2B478B"/>
<path d="M364.526 268.185C365.768 271.135 361.668 273.396 358.653 272.322C352.423 270.101 344.638 265.8 344.808 265.754C345.178 265.652 345.542 265.555 345.901 265.462C349.755 264.466 353.793 264.29 357.703 265.034C361.124 265.685 363.889 266.676 364.526 268.185V268.185Z" fill="#2C3A64"/>
<path d="M345.868 212.583C344.229 211.548 342.202 211.165 340.523 212.133C338.502 213.299 336.056 215.495 335.667 219.391C335.277 223.303 337.389 231.12 338.298 234.245C338.506 234.958 339.295 235.307 339.97 234.998V234.998C340.532 234.74 340.819 234.111 340.643 233.518C339.674 230.264 336.799 220.291 337.346 218.324C338.187 215.299 342.188 210.776 345.868 212.583V212.583Z" fill="#2B478B"/>
<path d="M365.118 267.699C361.381 272.12 333.354 263.072 335.652 260.743C336.236 260.152 336.628 259.342 336.865 258.389C338.004 253.866 335.737 246.129 334.765 243.131C334.658 242.8 334.115 240.759 333.573 238.702C332.925 236.242 334.509 233.592 336.981 232.994V232.994C338.905 232.53 340.89 233.447 342.038 235.059C342.927 236.309 344.091 237.713 345.387 238.698C349.188 241.589 355.332 244.93 363.45 244.945V244.945C363.451 244.945 363.452 244.946 363.452 244.947C363.565 245.707 363.687 246.548 363.809 247.442C364.441 252.057 364.807 257.975 365.181 262.384C365.196 262.537 365.207 262.693 365.223 262.851C365.412 264.745 365.739 266.962 365.118 267.699Z" fill="#2B478B"/>
<path d="M305.628 311.132V311.132C302.628 311.132 300.196 308.7 300.196 305.7V243.549C300.196 238.822 296.753 234.975 292.519 234.975H281.409C279.734 234.975 278.377 233.618 278.377 231.943V231.943C278.377 230.268 279.734 228.911 281.409 228.911H292.519C299.747 228.911 305.63 235.476 305.63 243.549V311.129C305.63 311.131 305.629 311.132 305.628 311.132V311.132Z" fill="#BDD1F9"/>
<path d="M290.521 235.468V228.698C290.521 228.428 290.302 228.208 290.031 228.208C289.76 228.208 289.541 228.428 289.541 228.698V235.468C289.541 235.738 289.76 235.958 290.031 235.958C290.302 235.958 290.521 235.738 290.521 235.468Z" fill="#91B5F8"/>
<path d="M300.198 249.13H306.045C306.347 249.13 306.592 248.885 306.592 248.583C306.592 248.28 306.347 248.035 306.045 248.035H300.198C299.895 248.035 299.651 248.28 299.651 248.583C299.651 248.885 299.895 249.13 300.198 249.13Z" fill="#91B5F8"/>
<path d="M300.199 262.14H306.046C306.348 262.14 306.593 261.895 306.593 261.593C306.593 261.291 306.348 261.046 306.046 261.046H300.199C299.897 261.046 299.652 261.291 299.652 261.593C299.652 261.895 299.897 262.14 300.199 262.14Z" fill="#91B5F8"/>
<path d="M306.064 307.85V305.364C306.064 303.551 304.594 302.082 302.781 302.082C300.969 302.082 299.499 303.551 299.499 305.364V307.85C299.499 309.662 300.969 311.132 302.781 311.132C304.594 311.132 306.064 309.662 306.064 307.85Z" fill="#91B5F8"/>
<path d="M306.842 245.628C306.623 246.249 306.92 246.934 307.523 247.199L331.971 257.925C332.481 258.148 333.058 257.869 333.258 257.3L333.426 256.821C333.596 256.339 333.382 255.797 332.953 255.607L308.534 244.894C307.864 244.6 307.085 244.938 306.842 245.628V245.628Z" fill="#2B478B"/>
<path d="M303.975 245.796V245.796C304.258 245.919 304.58 245.735 304.617 245.428L304.716 244.602C304.864 243.362 305.981 242.581 306.979 243.019L313.337 245.809C313.928 246.068 314.614 245.77 314.829 245.161V245.161C315.021 244.614 314.759 244.011 314.228 243.778L305.731 240.05C304.811 239.646 303.777 240.332 303.592 241.468L303.165 244.103C303.047 244.828 303.385 245.536 303.975 245.796Z" fill="#2B478B"/>
<path d="M310.585 246.682L312.359 247.46C313.156 247.81 314.037 247.428 314.326 246.607C314.615 245.786 314.203 244.836 313.405 244.487L311.632 243.709C310.835 243.359 309.954 243.741 309.665 244.562C309.376 245.384 309.788 246.333 310.585 246.682Z" fill="#2B478B"/>
<path d="M313.175 246.265C313.238 246.083 313.16 245.879 312.996 245.808C312.833 245.738 312.65 245.825 312.587 246.007C312.524 246.19 312.604 246.394 312.766 246.465C312.927 246.535 313.11 246.448 313.175 246.265Z" fill="#6C7AFF"/>
<path d="M311.293 245.441C311.356 245.261 311.278 245.054 311.114 244.984C310.951 244.913 310.768 245.001 310.705 245.183C310.642 245.365 310.72 245.57 310.884 245.64C311.047 245.711 311.23 245.623 311.293 245.441Z" fill="#6C7AFF"/>
<path d="M334.657 253.148C334.425 252.247 333.502 251.706 332.578 251.817C332.283 251.852 331.967 251.88 331.647 251.892C330.44 251.936 329.164 251.688 328.586 251.957C327.365 252.526 323.494 255.495 325.363 256.767C327.232 258.039 329.157 257.594 330.436 256.439C331.033 255.898 332.112 255.59 333.09 255.415C334.152 255.225 334.927 254.193 334.657 253.148V253.148Z" fill="#FFB27D"/>
<path d="M347.245 217.215C355.637 219.919 360.747 242.401 359.566 249.132C358.639 254.41 343.859 255.765 337.533 256.103C335.705 256.201 333.445 255.664 333.208 253.849V253.849V253.849C333.026 252.456 334.025 251.37 335.363 250.939C339.514 249.602 348.283 246.614 348.544 245.142C348.886 243.211 341.334 232.977 341.448 227.428C341.561 221.879 342.672 215.742 347.245 217.215Z" fill="#F99746"/>
<path d="M301.265 311.132C307.504 311.132 308.967 305.795 302.781 306.606V306.606C293.57 307.813 287.01 313.342 265.039 307.171C243.067 300.999 245.051 312.073 232.538 309.687V309.687C226.978 308.627 227.285 311.132 232.946 311.132H301.265Z" fill="#8C9DF4"/>
<path d="M300.294 224.84C299.819 227.01 296.64 222.683 298.842 222.976C298.998 222.997 299.157 223.026 299.318 223.062C299.347 223.069 299.376 223.076 299.404 223.086C299.617 223.162 300.571 223.577 300.294 224.84V224.84Z" fill="#8C9DF4"/>
<rect width="642" height="126" transform="translate(0 300)" fill="#F99746"/>
<path d="M30.1744 332.344V344.104C30.1744 345.28 30.4637 346.185 31.0424 346.82C31.621 347.455 32.4704 347.772 33.5904 347.772C34.7104 347.772 35.569 347.455 36.1664 346.82C36.7637 346.185 37.0624 345.28 37.0624 344.104V332.344H41.8504V344.076C41.8504 345.831 41.477 347.315 40.7304 348.528C39.9837 349.741 38.9757 350.656 37.7064 351.272C36.4557 351.888 35.0557 352.196 33.5064 352.196C31.957 352.196 30.5664 351.897 29.3344 351.3C28.121 350.684 27.1597 349.769 26.4504 348.556C25.741 347.324 25.3864 345.831 25.3864 344.076V332.344H30.1744ZM57.2526 352L53.2486 345.98L49.7206 352H44.2886L50.5886 342.004L44.1486 332.344H49.7206L53.6686 338.28L57.1406 332.344H62.5726L56.3286 342.256L62.8246 352H57.2526ZM70.3498 342.144C70.3498 340.203 70.7698 338.476 71.6098 336.964C72.4498 335.433 73.6164 334.248 75.1098 333.408C76.6218 332.549 78.3298 332.12 80.2338 332.12C82.5671 332.12 84.5644 332.736 86.2258 333.968C87.8871 335.2 88.9978 336.88 89.5578 339.008H84.2938C83.9018 338.187 83.3418 337.561 82.6138 337.132C81.9044 336.703 81.0924 336.488 80.1778 336.488C78.7031 336.488 77.5084 337.001 76.5938 338.028C75.6791 339.055 75.2218 340.427 75.2218 342.144C75.2218 343.861 75.6791 345.233 76.5938 346.26C77.5084 347.287 78.7031 347.8 80.1778 347.8C81.0924 347.8 81.9044 347.585 82.6138 347.156C83.3418 346.727 83.9018 346.101 84.2938 345.28H89.5578C88.9978 347.408 87.8871 349.088 86.2258 350.32C84.5644 351.533 82.5671 352.14 80.2338 352.14C78.3298 352.14 76.6218 351.72 75.1098 350.88C73.6164 350.021 72.4498 348.836 71.6098 347.324C70.7698 345.812 70.3498 344.085 70.3498 342.144ZM104.726 348.528H97.3899L96.2139 352H91.2019L98.3139 332.344H103.858L110.97 352H105.902L104.726 348.528ZM103.494 344.832L101.058 337.636L98.6499 344.832H103.494ZM120.246 352.196C118.809 352.196 117.521 351.963 116.382 351.496C115.244 351.029 114.329 350.339 113.638 349.424C112.966 348.509 112.612 347.408 112.574 346.12H117.67C117.745 346.848 117.997 347.408 118.426 347.8C118.856 348.173 119.416 348.36 120.106 348.36C120.816 348.36 121.376 348.201 121.786 347.884C122.197 347.548 122.402 347.091 122.402 346.512C122.402 346.027 122.234 345.625 121.898 345.308C121.581 344.991 121.18 344.729 120.694 344.524C120.228 344.319 119.556 344.085 118.678 343.824C117.409 343.432 116.373 343.04 115.57 342.648C114.768 342.256 114.077 341.677 113.498 340.912C112.92 340.147 112.63 339.148 112.63 337.916C112.63 336.087 113.293 334.659 114.618 333.632C115.944 332.587 117.67 332.064 119.798 332.064C121.964 332.064 123.709 332.587 125.034 333.632C126.36 334.659 127.069 336.096 127.162 337.944H121.982C121.945 337.309 121.712 336.815 121.282 336.46C120.853 336.087 120.302 335.9 119.63 335.9C119.052 335.9 118.585 336.059 118.23 336.376C117.876 336.675 117.698 337.113 117.698 337.692C117.698 338.327 117.997 338.821 118.594 339.176C119.192 339.531 120.125 339.913 121.394 340.324C122.664 340.753 123.69 341.164 124.474 341.556C125.277 341.948 125.968 342.517 126.546 343.264C127.125 344.011 127.414 344.972 127.414 346.148C127.414 347.268 127.125 348.285 126.546 349.2C125.986 350.115 125.165 350.843 124.082 351.384C123 351.925 121.721 352.196 120.246 352.196ZM135.149 336.18V340.156H141.561V343.852H135.149V348.164H142.401V352H130.361V332.344H142.401V336.18H135.149ZM158.555 352.196C157.118 352.196 155.83 351.963 154.691 351.496C153.552 351.029 152.638 350.339 151.947 349.424C151.275 348.509 150.92 347.408 150.883 346.12H155.979C156.054 346.848 156.306 347.408 156.735 347.8C157.164 348.173 157.724 348.36 158.415 348.36C159.124 348.36 159.684 348.201 160.095 347.884C160.506 347.548 160.711 347.091 160.711 346.512C160.711 346.027 160.543 345.625 160.207 345.308C159.89 344.991 159.488 344.729 159.003 344.524C158.536 344.319 157.864 344.085 156.987 343.824C155.718 343.432 154.682 343.04 153.879 342.648C153.076 342.256 152.386 341.677 151.807 340.912C151.228 340.147 150.939 339.148 150.939 337.916C150.939 336.087 151.602 334.659 152.927 333.632C154.252 332.587 155.979 332.064 158.107 332.064C160.272 332.064 162.018 332.587 163.343 333.632C164.668 334.659 165.378 336.096 165.471 337.944H160.291C160.254 337.309 160.02 336.815 159.591 336.46C159.162 336.087 158.611 335.9 157.939 335.9C157.36 335.9 156.894 336.059 156.539 336.376C156.184 336.675 156.007 337.113 156.007 337.692C156.007 338.327 156.306 338.821 156.903 339.176C157.5 339.531 158.434 339.913 159.703 340.324C160.972 340.753 161.999 341.164 162.783 341.556C163.586 341.948 164.276 342.517 164.855 343.264C165.434 344.011 165.723 344.972 165.723 346.148C165.723 347.268 165.434 348.285 164.855 349.2C164.295 350.115 163.474 350.843 162.391 351.384C161.308 351.925 160.03 352.196 158.555 352.196ZM182.81 332.344V336.18H177.602V352H172.814V336.18H167.606V332.344H182.81ZM189.917 332.344V344.104C189.917 345.28 190.206 346.185 190.785 346.82C191.363 347.455 192.213 347.772 193.333 347.772C194.453 347.772 195.311 347.455 195.909 346.82C196.506 346.185 196.805 345.28 196.805 344.104V332.344H201.593V344.076C201.593 345.831 201.219 347.315 200.473 348.528C199.726 349.741 198.718 350.656 197.449 351.272C196.198 351.888 194.798 352.196 193.249 352.196C191.699 352.196 190.309 351.897 189.077 351.3C187.863 350.684 186.902 349.769 186.193 348.556C185.483 347.324 185.129 345.831 185.129 344.076V332.344H189.917ZM212.319 332.344C214.391 332.344 216.201 332.755 217.751 333.576C219.3 334.397 220.495 335.555 221.335 337.048C222.193 338.523 222.623 340.231 222.623 342.172C222.623 344.095 222.193 345.803 221.335 347.296C220.495 348.789 219.291 349.947 217.723 350.768C216.173 351.589 214.372 352 212.319 352H204.955V332.344H212.319ZM212.011 347.856C213.821 347.856 215.231 347.361 216.239 346.372C217.247 345.383 217.751 343.983 217.751 342.172C217.751 340.361 217.247 338.952 216.239 337.944C215.231 336.936 213.821 336.432 212.011 336.432H209.743V347.856H212.011ZM242.155 332.344L235.351 345.504V352H230.562V345.504L223.759 332.344H229.191L232.999 340.576L236.779 332.344H242.155ZM30.1744 374.344V386.104C30.1744 387.28 30.4637 388.185 31.0424 388.82C31.621 389.455 32.4704 389.772 33.5904 389.772C34.7104 389.772 35.569 389.455 36.1664 388.82C36.7637 388.185 37.0624 387.28 37.0624 386.104V374.344H41.8504V386.076C41.8504 387.831 41.477 389.315 40.7304 390.528C39.9837 391.741 38.9757 392.656 37.7064 393.272C36.4557 393.888 35.0557 394.196 33.5064 394.196C31.957 394.196 30.5664 393.897 29.3344 393.3C28.121 392.684 27.1597 391.769 26.4504 390.556C25.741 389.324 25.3864 387.831 25.3864 386.076V374.344H30.1744ZM62.7966 394H58.0086L50.0006 381.876V394H45.2126V374.344H50.0006L58.0086 386.524V374.344H62.7966V394ZM71.0553 374.344V394H66.2673V374.344H71.0553ZM92.9771 374.344L86.0051 394H80.0131L73.0411 374.344H78.1371L83.0091 389.184L87.9091 374.344H92.9771ZM99.7662 378.18V382.156H106.178V385.852H99.7662V390.164H107.018V394H94.9782V374.344H107.018V378.18H99.7662ZM120.151 394L116.063 386.58H114.915V394H110.127V374.344H118.163C119.712 374.344 121.028 374.615 122.111 375.156C123.212 375.697 124.033 376.444 124.575 377.396C125.116 378.329 125.387 379.375 125.387 380.532C125.387 381.839 125.013 383.005 124.267 384.032C123.539 385.059 122.456 385.787 121.019 386.216L125.555 394H120.151ZM114.915 383.192H117.883C118.76 383.192 119.413 382.977 119.843 382.548C120.291 382.119 120.515 381.512 120.515 380.728C120.515 379.981 120.291 379.393 119.843 378.964C119.413 378.535 118.76 378.32 117.883 378.32H114.915V383.192ZM135.504 394.196C134.067 394.196 132.779 393.963 131.64 393.496C130.502 393.029 129.587 392.339 128.896 391.424C128.224 390.509 127.87 389.408 127.832 388.12H132.928C133.003 388.848 133.255 389.408 133.684 389.8C134.114 390.173 134.674 390.36 135.364 390.36C136.074 390.36 136.634 390.201 137.044 389.884C137.455 389.548 137.66 389.091 137.66 388.512C137.66 388.027 137.492 387.625 137.156 387.308C136.839 386.991 136.438 386.729 135.952 386.524C135.486 386.319 134.814 386.085 133.936 385.824C132.667 385.432 131.631 385.04 130.828 384.648C130.026 384.256 129.335 383.677 128.756 382.912C128.178 382.147 127.888 381.148 127.888 379.916C127.888 378.087 128.551 376.659 129.876 375.632C131.202 374.587 132.928 374.064 135.056 374.064C137.222 374.064 138.967 374.587 140.292 375.632C141.618 376.659 142.327 378.096 142.42 379.944H137.24C137.203 379.309 136.97 378.815 136.54 378.46C136.111 378.087 135.56 377.9 134.888 377.9C134.31 377.9 133.843 378.059 133.488 378.376C133.134 378.675 132.956 379.113 132.956 379.692C132.956 380.327 133.255 380.821 133.852 381.176C134.45 381.531 135.383 381.913 136.652 382.324C137.922 382.753 138.948 383.164 139.732 383.556C140.535 383.948 141.226 384.517 141.804 385.264C142.383 386.011 142.672 386.972 142.672 388.148C142.672 389.268 142.383 390.285 141.804 391.2C141.244 392.115 140.423 392.843 139.34 393.384C138.258 393.925 136.979 394.196 135.504 394.196ZM150.407 374.344V394H145.619V374.344H150.407ZM168.017 374.344V378.18H162.809V394H158.021V378.18H152.813V374.344H168.017ZM187.276 374.344L180.472 387.504V394H175.684V387.504L168.88 374.344H174.312L178.12 382.576L181.9 374.344H187.276ZM194.326 384.144C194.326 382.203 194.746 380.476 195.586 378.964C196.426 377.433 197.593 376.248 199.086 375.408C200.598 374.549 202.306 374.12 204.21 374.12C206.544 374.12 208.541 374.736 210.202 375.968C211.864 377.2 212.974 378.88 213.534 381.008H208.27C207.878 380.187 207.318 379.561 206.59 379.132C205.881 378.703 205.069 378.488 204.154 378.488C202.68 378.488 201.485 379.001 200.57 380.028C199.656 381.055 199.198 382.427 199.198 384.144C199.198 385.861 199.656 387.233 200.57 388.26C201.485 389.287 202.68 389.8 204.154 389.8C205.069 389.8 205.881 389.585 206.59 389.156C207.318 388.727 207.878 388.101 208.27 387.28H213.534C212.974 389.408 211.864 391.088 210.202 392.32C208.541 393.533 206.544 394.14 204.21 394.14C202.306 394.14 200.598 393.72 199.086 392.88C197.593 392.021 196.426 390.836 195.586 389.324C194.746 387.812 194.326 386.085 194.326 384.144ZM225.762 394.196C223.914 394.196 222.216 393.767 220.666 392.908C219.136 392.049 217.913 390.855 216.998 389.324C216.102 387.775 215.654 386.039 215.654 384.116C215.654 382.193 216.102 380.467 216.998 378.936C217.913 377.405 219.136 376.211 220.666 375.352C222.216 374.493 223.914 374.064 225.762 374.064C227.61 374.064 229.3 374.493 230.83 375.352C232.38 376.211 233.593 377.405 234.47 378.936C235.366 380.467 235.814 382.193 235.814 384.116C235.814 386.039 235.366 387.775 234.47 389.324C233.574 390.855 232.361 392.049 230.83 392.908C229.3 393.767 227.61 394.196 225.762 394.196ZM225.762 389.828C227.33 389.828 228.581 389.305 229.514 388.26C230.466 387.215 230.942 385.833 230.942 384.116C230.942 382.38 230.466 380.999 229.514 379.972C228.581 378.927 227.33 378.404 225.762 378.404C224.176 378.404 222.906 378.917 221.954 379.944C221.021 380.971 220.554 382.361 220.554 384.116C220.554 385.852 221.021 387.243 221.954 388.288C222.906 389.315 224.176 389.828 225.762 389.828ZM243.182 374.344V386.104C243.182 387.28 243.472 388.185 244.05 388.82C244.629 389.455 245.478 389.772 246.598 389.772C247.718 389.772 248.577 389.455 249.174 388.82C249.772 388.185 250.07 387.28 250.07 386.104V374.344H254.858V386.076C254.858 387.831 254.485 389.315 253.738 390.528C252.992 391.741 251.984 392.656 250.714 393.272C249.464 393.888 248.064 394.196 246.514 394.196C244.965 394.196 243.574 393.897 242.342 393.3C241.129 392.684 240.168 391.769 239.458 390.556C238.749 389.324 238.394 387.831 238.394 386.076V374.344H243.182ZM268.244 394L264.156 386.58H263.008V394H258.22V374.344H266.256C267.806 374.344 269.122 374.615 270.204 375.156C271.306 375.697 272.127 376.444 272.668 377.396C273.21 378.329 273.48 379.375 273.48 380.532C273.48 381.839 273.107 383.005 272.36 384.032C271.632 385.059 270.55 385.787 269.112 386.216L273.648 394H268.244ZM263.008 383.192H265.976C266.854 383.192 267.507 382.977 267.936 382.548C268.384 382.119 268.608 381.512 268.608 380.728C268.608 379.981 268.384 379.393 267.936 378.964C267.507 378.535 266.854 378.32 265.976 378.32H263.008V383.192ZM283.598 394.196C282.161 394.196 280.873 393.963 279.734 393.496C278.595 393.029 277.681 392.339 276.99 391.424C276.318 390.509 275.963 389.408 275.926 388.12H281.022C281.097 388.848 281.349 389.408 281.778 389.8C282.207 390.173 282.767 390.36 283.458 390.36C284.167 390.36 284.727 390.201 285.138 389.884C285.549 389.548 285.754 389.091 285.754 388.512C285.754 388.027 285.586 387.625 285.25 387.308C284.933 386.991 284.531 386.729 284.046 386.524C283.579 386.319 282.907 386.085 282.03 385.824C280.761 385.432 279.725 385.04 278.922 384.648C278.119 384.256 277.429 383.677 276.85 382.912C276.271 382.147 275.982 381.148 275.982 379.916C275.982 378.087 276.645 376.659 277.97 375.632C279.295 374.587 281.022 374.064 283.15 374.064C285.315 374.064 287.061 374.587 288.386 375.632C289.711 376.659 290.421 378.096 290.514 379.944H285.334C285.297 379.309 285.063 378.815 284.634 378.46C284.205 378.087 283.654 377.9 282.982 377.9C282.403 377.9 281.937 378.059 281.582 378.376C281.227 378.675 281.05 379.113 281.05 379.692C281.05 380.327 281.349 380.821 281.946 381.176C282.543 381.531 283.477 381.913 284.746 382.324C286.015 382.753 287.042 383.164 287.826 383.556C288.629 383.948 289.319 384.517 289.898 385.264C290.477 386.011 290.766 386.972 290.766 388.148C290.766 389.268 290.477 390.285 289.898 391.2C289.338 392.115 288.517 392.843 287.434 393.384C286.351 393.925 285.073 394.196 283.598 394.196ZM298.501 378.18V382.156H304.913V385.852H298.501V390.164H305.753V394H293.713V374.344H305.753V378.18H298.501ZM327.591 374.344V378.18H319.583V382.324H325.575V386.048H319.583V394H314.795V374.344H327.591ZM334.895 374.344V394H330.107V374.344H334.895ZM355.949 394H351.161L343.153 381.876V394H338.365V374.344H343.153L351.161 386.524V374.344H355.949V394ZM371.656 390.528H364.32L363.144 394H358.132L365.244 374.344H370.788L377.9 394H372.832L371.656 390.528ZM370.424 386.832L367.988 379.636L365.58 386.832H370.424ZM384.852 390.304H391.124V394H380.064V374.344H384.852V390.304ZM414.321 380.672C414.321 381.811 414.06 382.856 413.537 383.808C413.015 384.741 412.212 385.497 411.129 386.076C410.047 386.655 408.703 386.944 407.097 386.944H404.129V394H399.341V374.344H407.097C408.665 374.344 409.991 374.615 411.073 375.156C412.156 375.697 412.968 376.444 413.509 377.396C414.051 378.348 414.321 379.44 414.321 380.672ZM406.733 383.136C407.648 383.136 408.329 382.921 408.777 382.492C409.225 382.063 409.449 381.456 409.449 380.672C409.449 379.888 409.225 379.281 408.777 378.852C408.329 378.423 407.648 378.208 406.733 378.208H404.129V383.136H406.733ZM426.838 394L422.75 386.58H421.602V394H416.814V374.344H424.85C426.399 374.344 427.715 374.615 428.798 375.156C429.899 375.697 430.721 376.444 431.262 377.396C431.803 378.329 432.074 379.375 432.074 380.532C432.074 381.839 431.701 383.005 430.954 384.032C430.226 385.059 429.143 385.787 427.706 386.216L432.242 394H426.838ZM421.602 383.192H424.57C425.447 383.192 426.101 382.977 426.53 382.548C426.978 382.119 427.202 381.512 427.202 380.728C427.202 379.981 426.978 379.393 426.53 378.964C426.101 378.535 425.447 378.32 424.57 378.32H421.602V383.192ZM444.376 394.196C442.528 394.196 440.829 393.767 439.28 392.908C437.749 392.049 436.526 390.855 435.612 389.324C434.716 387.775 434.268 386.039 434.268 384.116C434.268 382.193 434.716 380.467 435.612 378.936C436.526 377.405 437.749 376.211 439.28 375.352C440.829 374.493 442.528 374.064 444.376 374.064C446.224 374.064 447.913 374.493 449.444 375.352C450.993 376.211 452.206 377.405 453.084 378.936C453.98 380.467 454.428 382.193 454.428 384.116C454.428 386.039 453.98 387.775 453.084 389.324C452.188 390.855 450.974 392.049 449.444 392.908C447.913 393.767 446.224 394.196 444.376 394.196ZM444.376 389.828C445.944 389.828 447.194 389.305 448.128 388.26C449.08 387.215 449.556 385.833 449.556 384.116C449.556 382.38 449.08 380.999 448.128 379.972C447.194 378.927 445.944 378.404 444.376 378.404C442.789 378.404 441.52 378.917 440.568 379.944C439.634 380.971 439.168 382.361 439.168 384.116C439.168 385.852 439.634 387.243 440.568 388.288C441.52 389.315 442.789 389.828 444.376 389.828ZM469.411 374.344V387.728C469.411 389.8 468.823 391.396 467.647 392.516C466.49 393.636 464.922 394.196 462.943 394.196C460.871 394.196 459.21 393.608 457.959 392.432C456.709 391.256 456.083 389.585 456.083 387.42H460.843C460.843 388.241 461.011 388.867 461.347 389.296C461.683 389.707 462.169 389.912 462.803 389.912C463.382 389.912 463.83 389.725 464.147 389.352C464.465 388.979 464.623 388.437 464.623 387.728V374.344H469.411ZM478.067 378.18V382.156H484.479V385.852H478.067V390.164H485.319V394H473.279V374.344H485.319V378.18H478.067ZM487.615 384.144C487.615 382.203 488.035 380.476 488.875 378.964C489.715 377.433 490.882 376.248 492.375 375.408C493.887 374.549 495.595 374.12 497.499 374.12C499.833 374.12 501.83 374.736 503.491 375.968C505.153 377.2 506.263 378.88 506.823 381.008H501.559C501.167 380.187 500.607 379.561 499.879 379.132C499.17 378.703 498.358 378.488 497.443 378.488C495.969 378.488 494.774 379.001 493.859 380.028C492.945 381.055 492.487 382.427 492.487 384.144C492.487 385.861 492.945 387.233 493.859 388.26C494.774 389.287 495.969 389.8 497.443 389.8C498.358 389.8 499.17 389.585 499.879 389.156C500.607 388.727 501.167 388.101 501.559 387.28H506.823C506.263 389.408 505.153 391.088 503.491 392.32C501.83 393.533 499.833 394.14 497.499 394.14C495.595 394.14 493.887 393.72 492.375 392.88C490.882 392.021 489.715 390.836 488.875 389.324C488.035 387.812 487.615 386.085 487.615 384.144ZM523.896 374.344V378.18H518.688V394H513.9V378.18H508.692V374.344H523.896Z" fill="white"/>
</svg>
